<?xml version="1.0" encoding="UTF-8"?>
<svg xmlns="http://www.w3.org/2000/svg" version="1.1" xmlns:xlink="http://www.w3.org/1999/xlink" viewBox="0 0 160 160">
  <!-- Generator: Adobe Illustrator 29.6.1, SVG Export Plug-In . SVG Version: 2.1.1 Build 9)  -->
  <defs>
    <style>
      .st0 {
        fill: url(#linear-gradient5);
      }

      .st0, .st1, .st2, .st3, .st4, .st5, .st6, .st7, .st8, .st9, .st10, .st11, .st12, .st13, .st14, .st15, .st16, .st17, .st18, .st19, .st20, .st21, .st22, .st23, .st24, .st25, .st26, .st27, .st28, .st29, .st30, .st31, .st32, .st33, .st34, .st35, .st36, .st37, .st38 {
        stroke-miterlimit: 10;
      }

      .st0, .st1, .st4, .st5, .st6, .st7, .st8, .st9, .st11, .st12, .st14, .st15, .st16, .st17, .st18, .st19, .st21, .st22, .st24, .st25, .st26, .st27, .st28, .st29, .st30, .st31, .st32, .st33, .st34, .st35, .st36, .st37, .st38 {
        stroke: #231f20;
      }

      .st0, .st1, .st4, .st5, .st6, .st8, .st9, .st12, .st14, .st15, .st16, .st17, .st18, .st19, .st21, .st22, .st24, .st25, .st26, .st28, .st29, .st31, .st34, .st35, .st36, .st37, .st38 {
        stroke-width: 0px;
      }

      .st1 {
        fill: url(#linear-gradient9);
      }

      .st39 {
        fill: #213419;
      }

      .st40 {
        fill: #3b2314;
      }

      .st41 {
        fill: #fbb145;
      }

      .st2 {
        stroke: #000;
      }

      .st2, .st3, .st11, .st42, .st30, .st33 {
        fill: none;
      }

      .st3 {
        stroke: #1d2917;
      }

      .st3, .st30 {
        stroke-width: 2px;
      }

      .st4 {
        fill: url(#linear-gradient17);
      }

      .st43 {
        fill: #907738;
      }

      .st43, .st44, .st45, .st46, .st47, .st48, .st49 {
        opacity: .5;
      }

      .st43, .st47 {
        mix-blend-mode: multiply;
      }

      .st50 {
        fill: #dfba70;
      }

      .st51 {
        opacity: .7;
      }

      .st51, .st52, .st44, .st20, .st46, .st53 {
        fill: #fff;
      }

      .st51, .st46, .st53 {
        mix-blend-mode: luminosity;
      }

      .st5 {
        fill: url(#linear-gradient21);
      }

      .st6 {
        fill: url(#linear-gradient12);
      }

      .st54, .st27 {
        fill: #fadb48;
      }

      .st7 {
        stroke-width: .5px;
      }

      .st7, .st23 {
        fill: #fde520;
      }

      .st55, .st13 {
        fill: #fbd88c;
      }

      .st8 {
        fill: url(#linear-gradient19);
      }

      .st9 {
        fill: url(#linear-gradient24);
      }

      .st10 {
        fill: #0e7a3d;
      }

      .st10, .st13, .st23 {
        stroke-width: .2px;
      }

      .st10, .st20 {
        stroke: #21341b;
      }

      .st11 {
        stroke-width: .8px;
      }

      .st12 {
        fill: url(#linear-gradient26);
      }

      .st13, .st23 {
        stroke: #396430;
      }

      .st14 {
        fill: url(#linear-gradient3);
      }

      .st56 {
        fill: #d6af6b;
      }

      .st15 {
        fill: url(#linear-gradient7);
      }

      .st16 {
        fill: url(#linear-gradient11);
      }

      .st17 {
        fill: url(#linear-gradient6);
      }

      .st18 {
        fill: url(#linear-gradient);
      }

      .st19 {
        fill: url(#linear-gradient8);
      }

      .st45 {
        fill: #f9a11b;
      }

      .st57 {
        fill: #2f2c14;
      }

      .st57, .st53 {
        opacity: .4;
      }

      .st58 {
        clip-path: url(#clippath-1);
      }

      .st59 {
        fill: #95c83d;
      }

      .st60 {
        fill: #396430;
      }

      .st20 {
        stroke-width: .4px;
      }

      .st21 {
        fill: url(#linear-gradient13);
      }

      .st22 {
        fill: url(#linear-gradient25);
      }

      .st61, .st32 {
        fill: #231f20;
      }

      .st24 {
        fill: url(#linear-gradient15);
      }

      .st62, .st48 {
        fill: #936a29;
      }

      .st63 {
        isolation: isolate;
      }

      .st47 {
        fill: #906837;
      }

      .st25 {
        fill: url(#linear-gradient10);
      }

      .st64 {
        fill: #facb47;
      }

      .st26 {
        fill: url(#linear-gradient18);
      }

      .st65 {
        fill: #1e180d;
      }

      .st28 {
        fill: url(#linear-gradient1);
      }

      .st66 {
        fill: #d6af6a;
      }

      .st67 {
        fill: #220c0d;
      }

      .st29 {
        fill: url(#linear-gradient23);
      }

      .st48 {
        mix-blend-mode: screen;
      }

      .st68 {
        display: none;
      }

      .st69 {
        fill: #fac146;
      }

      .st70 {
        fill: #f9cada;
      }

      .st31 {
        fill: url(#linear-gradient2);
      }

      .st71 {
        fill: #21341b;
      }

      .st34 {
        fill: url(#linear-gradient14);
      }

      .st35 {
        fill: url(#linear-gradient4);
      }

      .st36 {
        fill: url(#linear-gradient16);
      }

      .st72 {
        fill: #c02026;
      }

      .st73 {
        clip-path: url(#clippath);
      }

      .st74 {
        fill: #531010;
      }

      .st37 {
        fill: url(#linear-gradient22);
      }

      .st38 {
        fill: url(#linear-gradient20);
      }
    </style>
    <clipPath id="clippath">
      <path class="st42" d="M52.7,112.5s12.3,13.6,33,12.9c20.7-.7,32.7-17,32.7-17l2.8-63.7-32.4-8-27.3,1.2-30.3,14.2-22.3,29s17.6,25.9,18.3,26.7c.7.8,25.6,4.7,25.6,4.7Z"/>
    </clipPath>
    <linearGradient id="linear-gradient" x1="79.2" y1="98" x2="83.6" y2="98" gradientUnits="userSpaceOnUse">
      <stop offset="0" stop-color="#fff"/>
      <stop offset="1" stop-color="#d0d0d0"/>
    </linearGradient>
    <linearGradient id="linear-gradient1" x1="69.2" y1="99" x2="73.6" y2="99" xlink:href="#linear-gradient"/>
    <linearGradient id="linear-gradient2" x1="48" y1="100.7" x2="52.7" y2="100.7" xlink:href="#linear-gradient"/>
    <linearGradient id="linear-gradient3" x1="57.1" y1="100.1" x2="61.8" y2="100.1" xlink:href="#linear-gradient"/>
    <linearGradient id="linear-gradient4" x1="63" y1="98.2" x2="67.7" y2="98.2" xlink:href="#linear-gradient"/>
    <linearGradient id="linear-gradient5" x1="40" y1="96.8" x2="45.2" y2="96.8" xlink:href="#linear-gradient"/>
    <linearGradient id="linear-gradient6" x1="50.1" y1="89.7" x2="53.2" y2="89.7" gradientTransform="translate(-17.1 15.5) rotate(-10.7)" xlink:href="#linear-gradient"/>
    <linearGradient id="linear-gradient7" x1="21" y1="86.8" x2="26.5" y2="86.8" xlink:href="#linear-gradient"/>
    <linearGradient id="linear-gradient8" x1="32.1" y1="89.5" x2="37.5" y2="89.5" xlink:href="#linear-gradient"/>
    <linearGradient id="linear-gradient9" x1="43.4" y1="87.2" x2="48.9" y2="87.2" xlink:href="#linear-gradient"/>
    <linearGradient id="linear-gradient10" x1="63" y1="91" x2="67.5" y2="91" xlink:href="#linear-gradient"/>
    <linearGradient id="linear-gradient11" x1="73.1" y1="91.4" x2="77.6" y2="91.4" xlink:href="#linear-gradient"/>
    <linearGradient id="linear-gradient12" x1="51.6" y1="91" x2="56.1" y2="91" xlink:href="#linear-gradient"/>
    <linearGradient id="linear-gradient13" x1="57.3" y1="91.4" x2="61.7" y2="91.4" xlink:href="#linear-gradient"/>
    <path id="path" d="M6.6,115.1h159.2"/>
    <clipPath id="clippath-1">
      <path class="st42" d="M52.7,112.5s12.3,13.6,33,12.9c20.7-.7,32.7-17,32.7-17l2.8-63.7-32.4-8-27.3,1.2-30.3,14.2-22.3,29s17.6,25.9,18.3,26.7c.7.8,25.6,4.7,25.6,4.7Z"/>
    </clipPath>
    <linearGradient id="linear-gradient14" x1="69.2" y1="96" x2="73.6" y2="96" xlink:href="#linear-gradient"/>
    <linearGradient id="linear-gradient15" x1="48.3" y1="99.3" x2="53" y2="99.3" xlink:href="#linear-gradient"/>
    <linearGradient id="linear-gradient16" x1="57.1" y1="97.1" x2="61.8" y2="97.1" xlink:href="#linear-gradient"/>
    <linearGradient id="linear-gradient17" x1="63" y1="95.2" x2="67.7" y2="95.2" xlink:href="#linear-gradient"/>
    <linearGradient id="linear-gradient18" x1="39.9" y1="97" x2="45.2" y2="97" xlink:href="#linear-gradient"/>
    <linearGradient id="linear-gradient19" x1="49.6" y1="89.2" x2="52.7" y2="89.2" gradientTransform="translate(-17.1 15.5) rotate(-10.7)" xlink:href="#linear-gradient"/>
    <linearGradient id="linear-gradient20" x1="21" y1="86.8" x2="26.5" y2="86.8" xlink:href="#linear-gradient"/>
    <linearGradient id="linear-gradient21" x1="32.1" y1="89.5" x2="37.5" y2="89.5" xlink:href="#linear-gradient"/>
    <linearGradient id="linear-gradient22" x1="43.4" y1="87.2" x2="48.9" y2="87.2" xlink:href="#linear-gradient"/>
    <linearGradient id="linear-gradient23" x1="63" y1="91" x2="67.5" y2="91" xlink:href="#linear-gradient"/>
    <linearGradient id="linear-gradient24" x1="73.1" y1="91.4" x2="77.6" y2="91.4" xlink:href="#linear-gradient"/>
    <linearGradient id="linear-gradient25" x1="51.6" y1="91" x2="56.1" y2="91" xlink:href="#linear-gradient"/>
    <linearGradient id="linear-gradient26" x1="57.3" y1="91.4" x2="61.7" y2="91.4" xlink:href="#linear-gradient"/>
    <path id="path1" d="M6.6,115.1h159.2"/>
  </defs>
  <g class="st63">
    <g id="Layer_1">
      <path class="st30" d="M148.4,82.6c0,12.8-3.7,24.8-10.2,34.9-1,1.6-2.1,3.1-3.2,4.6-11.8,15.4-30.5,25.4-51.4,25.4s-42.9-11.8-54.5-29.6c-6.5-10.1-10.3-22.2-10.3-35.2s2.9-22.1,8.1-31.4c11.1-19.9,32.3-33.4,56.7-33.4s57,21.8,63.3,51c.4,2,.8,4,1,6,.3,2.6.5,5.2.5,7.8Z"/>
      <circle class="st3" cx="83.6" cy="82.6" r="43.8" transform="translate(-11.3 151.9) rotate(-80.8)"/>
      <g class="st73">
        <g>
          <g>
            <path class="st65" d="M108.8,83.7s4.8-2.4,3.2-3.4-6.7-2.3-6.7-2.3c0,0-.3,4,0,4.8.3.8,3.5.9,3.5.9Z"/>
            <path class="st65" d="M108.1,89.5s4.8-2.4,3.2-3.4-6.7-2.3-6.7-2.3c0,0-.3,4,0,4.8.3.8,3.5.9,3.5.9Z"/>
            <path class="st65" d="M106.2,96.1s5.1-3.4,2.6-4.6c-2.5-1.2-6-2.1-6-2.1,0,0,1.3,6.3,3.5,6.8Z"/>
            <path class="st65" d="M110.4,115.1s5.1-3.4,2.6-4.6c-2.5-1.2-6-2.1-6-2.1,0,0,1.3,6.3,3.5,6.8Z"/>
            <path class="st65" d="M108.1,102.3s4.8-2.4,3.2-3.4-6.7-2.3-6.7-2.3c0,0-.3,4,0,4.8.3.8,3.5.9,3.5.9Z"/>
            <path class="st65" d="M109.6,108.5s5.1-3.4,2.6-4.6c-2.5-1.2-6-2.1-6-2.1,0,0,1.3,6.3,3.5,6.8Z"/>
            <path class="st65" d="M108.8,78.4s4.8-2.4,3.2-3.4-6.7-2.3-6.7-2.3c0,0-.3,4,0,4.8.3.8,3.5.9,3.5.9Z"/>
          </g>
          <path class="st62" d="M112.5,116.2c.1.5-.4,1.3-1.3,2.4-3.9,4.3-17.7,4.4-28,9.8-.4.2-.9.4-1.3.7-.3.2-.6.3-.8.4-.4.2-.7.4-1.1.5-.3.1-.5.3-.8.4-.1,0-.3.1-.4.2-.3.1-.5.3-.8.4-1.3.6-2.6,1.1-3.8,1.5-.3.1-.6.2-.9.3-.2,0-.4.1-.6.2-.1,0-.3,0-.4.1h0c-.2,0-.3,0-.5.1-.2,0-.3,0-.5.1,0,0,0,0-.1,0,0,0,0,0,0,0-.2,0-.4,0-.6.1-.2,0-.3,0-.4,0-.1,0-.3,0-.4,0-.1,0-.3,0-.4,0-2.2.1-3.6-.5-4-2.1-2.5-10.2,4.6-19.2,4.6-19.2-.3-2.8-.2-5.4.1-7.6,0-.3,0-.5.1-.7.2-.9.4-1.8.6-2.6,0-.3.2-.5.2-.8,0-.3.2-.5.3-.8.2-.5.4-1,.5-1.4,0-.1,0-.2.1-.3h0c0-.1.1-.2.2-.4,0-.2.2-.4.3-.6,0-.2.2-.4.3-.6.1-.2.2-.4.3-.5.3-.5.5-.9.8-1.3.2-.3.4-.6.6-.9.2-.2.3-.5.5-.6,0-.1.2-.2.2-.3.5-.6.8-.9.8-.9,1.2-13.2,7.5-10.2,5-11.7-2.5-1.5-2.4-9.5-2.4-9.5l2.9-1.1,8.6-3.4s.8,0,1.8.2c1.8.2,4.3.5,4.3.5,0,0-1.3.3-.4,1.9.9,1.7,8.3.6,8.3.6,0,0,9.1,3.6,5,13.1-1.6,3.6-1.1,19.1-1.1,19.1,0,0,3.7,10.6,4.6,14.8Z"/>
          <path class="st13" d="M83.8,112.2c-.5,2.3-3.2,8.9-.5,15.3-.4.2-.9.4-1.3.7-.3.2-.6.3-.8.4-.3.2-.7.3-1,.5-.3.1-.5.3-.8.4-.1,0-.3.1-.4.2-.3.1-.5.2-.8.4-1.3.6-2.6,1.1-3.8,1.5-.3,0-.6.2-.9.3-.2,0-.4.1-.6.2-.1,0-.3,0-.4.1h0c-.2,0-.3,0-.5.1-.2,0-.3,0-.5.1,0,0,0,0-.1,0,0,0,0,0,0,0-.2,0-.4,0-.6,0-.1,0-.3,0-.4,0-.1,0-.3,0-.4,0-.1,0-.2,0-.4,0-2.1.1-3.6-.5-4-2.1-2.5-10.1,4.6-19,4.6-19-.3-2.8-.2-5.3.1-7.5,0-.2,0-.5.1-.7.2-.9.4-1.8.6-2.6,0-.3.2-.5.2-.8,0-.2.2-.5.2-.8.2-.5.4-.9.5-1.4,0,0,0-.2.1-.3,0-.1.1-.2.2-.4,0-.2.2-.4.3-.6,0-.2.2-.4.3-.6,0-.2.2-.4.3-.5.3-.5.5-.9.8-1.3.2-.3.4-.6.6-.9.2-.2.3-.5.5-.6,0-.1.1-.2.2-.3l8.4,8.1s.9,8.6.2,11.9Z"/>
          <path class="st50" d="M80,99.8s-2.3,2-4,3.8h0c-1,1.1-1.9,2.2-1.9,2.8,0,1.6,2,7.8-.5,8.7-2.5.9-3,5.4-4.4,7.4-1.4,2,2.9,5.2,1.2,6-1,.4.6,2.5,2,4.1-.2,0-.3,0-.5.1-.2,0-.3,0-.5.1,0,0,0,0-.1,0,0,0,0,0,0,0-.2,0-.4,0-.6,0-.1,0-.3,0-.4,0-.1,0-.3,0-.4,0-.1,0-.2,0-.4,0-2.1.1-3.6-.5-4-2.1-2.5-10.1,4.6-19,4.6-19-.3-2.8-.2-5.3.1-7.5,0-.2,0-.5.1-.7.2-.9.4-1.8.6-2.6,0-.3.2-.5.2-.8,0-.2.2-.5.2-.8.2-.5.4-.9.5-1.4,0,0,0-.2.1-.3h0l7.9,1.8Z"/>
          <path class="st56" d="M77.3,101s-.3,1.3-1.3,2.4h0c-.5.5-1.1,1-1.9,1.2-2.6.9,0,7.9-2,8.2-1.9.2.7,4-2.9,6.3-3.6,2.2.9,7.5-.8,8.5-1,.6,1.1,3.2,2.9,5.1,0,0,0,0,0,0-.2,0-.4,0-.6,0-.1,0-.3,0-.4,0-.1,0-.3,0-.4,0-.1,0-.2,0-.4,0-2.1.1-3.6-.5-4-2.1-2.5-10.1,4.6-19,4.6-19-.3-2.8-.2-5.3.1-7.5,0-.2,0-.5.1-.7.2-.9.4-1.8.6-2.6h6.4Z"/>
          <path class="st40" d="M70.1,111.7c1.3,2.6,4.8,2.2,7.2,2-2.4.5-6.2.8-7.2-2h0Z"/>
          <path class="st40" d="M66.7,117.9c1.9,2.4,5.1,4.6,8.2,3.4-3.1,1.4-6.5-.8-8.2-3.4h0Z"/>
          <path class="st40" d="M65.1,127.7c3.2,2.3,7.5,1.8,10.7,0-3.2,2.1-7.7,2.5-10.7,0h0Z"/>
          <path class="st40" d="M70,106.6c2.5,1.5,5.5.9,8-.1.2,0,.4,0,.5.2,0-.2-.3-.2-.5-.2-2.4,1.3-5.7,1.9-8,0h0Z"/>
          <path class="st74" d="M58.3,87.6l-13.2,9.7-6.4,2.9-1.1,2.6,4.1,1.6s6.4-.1,6.8,0c.5.1,6.2-.8,6.7-1,.5-.2,2.3-1.2,3-1.8.8-.5,4-1.1,4.6-1.2.6-.1,5.3-.5,5.8-.5s10.8-.5,10.8-.5c0,0-1.7.9,0-.4,1.7-1.2,3.8-3.2,4.4-4.5.6-1.3,2.1-4.9,2.1-5.7v-4.7s-6.5-1.5-7.3-1.5c-.8,0-11.4,1-12,1.5-.6.4-8.4,3.3-8.4,3.3Z"/>
          <path class="st67" d="M63.2,90s-7.4,2.1-8.2,3.7c-.8,1.6-6.3,4.9-6.3,4.9,0,0-7.7,3.7-1.9,4.2,6.3.6,15.6-2.7,15.6-2.7,0,0,2.7-.4,6.7-.7,4-.2,12.9-3.2,13.2-3.4.3-.2,7.3-9.8,7.3-9.8l-3-3.6s-6.7-.4-7.3,0c-.6.4-9.9,3.7-9.9,3.7l-6.1,3.8Z"/>
          <path class="st70" d="M65.9,91.2s-5,.8-7.2,2.2c-2.2,1.3-3.5,2.1-5.3,3.4-1.8,1.3-10.9,4.1-5.2,5.3,6.9,1.5,7.6-.3,7.6-.3l4.3-1.5s14-1.9,14.3-1.8,8.2-5,8.2-5l3.9-7.9-9.2-2.8-11.5,8.4Z"/>
          <path class="st18" d="M83.6,100.6s-2.8-5.9-4.4-6.4c0,0,.7,6.5,0,7.3-.6.8,4.5-.6,4.3-1Z"/>
          <path class="st28" d="M73.6,101.6s-2.8-5.9-4.4-6.4c0,0,.7,6.5,0,7.3-.6.8,4.5-.6,4.3-1Z"/>
          <path class="st31" d="M52.7,102.8c-1.2.6-2.8.8-4.3.9-.4-2-.8-5.2,0-6.1,0,0,2.6,3.6,4.2,5.2Z"/>
          <path class="st14" d="M61.8,102.3c-1.2.6-2.8.8-4.3.9-.4-2-.8-5.2,0-6.1,0,0,2.6,3.6,4.2,5.2Z"/>
          <path class="st35" d="M67.7,100.3c-1.2.6-2.8.8-4.3.9-.4-2-.8-5.2,0-6.1,0,0,2.6,3.6,4.2,5.2Z"/>
          <g>
            <path class="st55" d="M102.1,90.8c-.5-2.4-2.1-4.4-4-5.9,0,0,0,0,0,0-3.2-2.6-7.3-3.8-8.6-3.1-2.5,1.3-3.2,2.3-3.2,2.3,0,0-.3,1-.8,2.5-1.4,3.5-4.9,9.6-11.5,9.7-9.4.2-17.6,4-20.1,6.1-.2.2-.5.4-.8.5-1.2.6-2.8.8-4.3.9-2.1.1-3.9,0-3.9,0,0,0-7.8-1.3-3.9-3.5h0c.4-.2.9-.4,1.5-.7,1-.4,2-.8,3-1.2,5.7-2.3,10-5.1,10.7-9.7.1-.9.1-1.5,0-1.9-.4-1.7-2.9,2-2.9,2,0,0-3.4,4.8-8.6,7.8-.2.1-.5.3-.7.4-1.1.6-2.3,1.1-3.4,1.5-1.5.6-2.8,1.1-3.8,1.6-1.7.8-2.4,1.7-.6,3,3.8,2.8,10.1,4.5,15.9,2.9,0,0,11.3-3.1,23-2.2,11.8.8,21.6,2.9,26.2-7.3.9-2.1,1.1-4,.7-5.7Z"/>
            <path class="st60" d="M102.1,90.8c-1.1-4.6-5.5-7.7-9.9-9-1-.2-2.3-.5-3.2.2-1,.5-2,1.2-2.6,2-1.3,4.5-3.8,9-8.1,11.2-2.1,1.1-4.6,1-6.9,1.2-2.3.2-4.7.6-7,1.2-3.4.9-6.8,2.2-9.7,4.1-.9.7-1.9,1.4-3.1,1.6-3.7.7-7.9.7-11.2-1.2-.2-.2-.5-.4-.5-.8,0-.7.6-1,1.1-1.3,0,0,0,0,0,0h0c6-2.7,15.4-5.1,15.3-13.2,0-.3-.2-.7-.4-.6-1.5.7-2.1,2.4-3.2,3.6-.8,1-1.7,2-2.7,2.9-2.8,2.8-6.4,4.7-10,6.1-1.8.9-7,2-3.2,4.3,3.3,2.2,7.2,3.3,11.1,3.3,2.6,0,5.2-.9,7.7-1.4,2.6-.5,5.2-.9,7.8-1.2,5.2-.6,10.5-.5,15.7,0,7.4.6,17.1,1.8,21.4-5.8,1.3-2.2,2.3-4.9,1.7-7.5h0ZM102.1,90.8c.6,2.6-.3,5.3-1.6,7.5-4.3,7.6-14,6.4-21.5,5.8-5.2-.5-10.5-.6-15.7,0-2.6.3-5.2.7-7.8,1.2-2.6.5-5.1,1.4-7.7,1.4-3.9,0-7.9-1.1-11.2-3.3-3.9-2.5,1.2-3.7,3.2-4.6,3.7-1.4,7.2-3.3,10-6.1.9-.9,1.8-1.9,2.7-2.9,1.1-1.2,1.8-2.9,3.3-3.6.4-.1.6.4.7.7,0,2-.6,4-1.8,5.6-3.3,4.1-9.1,5.8-13.6,7.6,0,0,0,0,0,0s0,0,0,0c-.3.2-.5.3-.7.5-.9.7,0,1.5.8,1.8,3.2,1.4,7,1.5,10.4.8,1.2-.2,2.2-.9,3.1-1.6,3-1.9,6.3-3.2,9.8-4.1,2.3-.6,4.6-1,7-1.2,2.3-.2,4.8,0,6.9-1.2,2.1-1,3.9-2.8,5.1-4.7,1.3-2,2.3-4.1,2.9-6.4.9-1.1,2.1-1.8,3.4-2.4,4.8-.4,11.4,4.4,12.4,9.2h0Z"/>
          </g>
          <path class="st57" d="M112.8,115.7c.1.5-.4,1.3-1.3,2.4-1-3.1-5-16.1-5.9-15.8-1.3.4-4.3,1.3-2.5-2.2,1.8-3.5,3.6-14.9,3.1-16.7-.5-1.8-.7-3.9-1.8-5.4-1.2-1.5-5.9-5-5.9-5l-6.4-3.9v-3c1.8.2,4.2.5,4.3.5,0,0-1.3.3-.4,1.9.9,1.6,8.2.6,8.2.6,0,0,9,3.6,5,12.9-1.5,3.6-1.1,18.9-1.1,18.9,0,0,3.8,10.5,4.8,14.7Z"/>
          <path class="st66" d="M36.5,100.1c1-.5,2.4-1,3.8-1.6,1.1-.4,2.3-.9,3.4-1.5.2-.1.5-.3.7-.4,5.2-3,7-6,7-6,0,0-.1-1.3.9,0-2.1,2.9-5,5.7-15.9,9.5Z"/>
          <path class="st0" d="M45.1,98.3c-1,.4-2,.8-3,1.2-.6.2-1.1.5-1.5.7,0-.2-.2-.8-.3-1.6-.3-1.7-.5-4.2.3-5,0,0,1.7,2.2,3.1,3.5.6.5,1.1.9,1.4,1,.2,0,.2.1,0,.3Z"/>
          <path class="st17" d="M52,94.6c-.5.3-1.1.7-1.6,1-.3.2-.6.4-.8.6,0-.1-.2-.5-.4-.9-.4-1-.8-2.4-.4-3,0,0,1.2,1.1,2.2,1.7.4.2.7.4.9.4.1,0,.1,0,0,.2Z"/>
          <g class="st49">
            <path class="st66" d="M101.7,90.8c-1.2-1.8-2.7-4.1-4-5.9,0,0,0,0,0,0-1.1-1.6-2-2.8-2.2-3.1-.8-.8-8.7-.2-10.6,0-1.9.2-.9,5.1-.9,5.1,0,0,.5-.2,1.2-.3,1.8-.4,5.4-.8,8.1,1.4,3.9,3,3.9,6.2,3,9.7-.2,1.1-2.2,2-5,2.6.5-1.8,1.7-6.2,1.4-6.7-.4-.6,0,2.9-2.4,7-2.4.5-5.2.9-8,1.2.5-1.3,1.1-3.2.9-3.5-.3-.3,0,1.4-1.4,3.5-3,.3-6,.5-8.2.6l.4-2.9c0,.5-.3,2.1-.9,2.9-.7,0-1.4,0-1.9,0-1.8,0-3.7.2-5.7.4-.1-.5-.5-2.3-.8-2.5-.4-.3.2,1.9-.5,2.7-3,.3-5.9.8-8.1,1.4l-1.3-1.1s.5,1,.4,1.4c0,0,0,0,0,0-.1,0-.3,0-.4.1-3.6,1.2-8.3.9-8.3.9,0,0-4.3.6-5.4-.2-1-.9-5.4-2-5.5-2.9-.1-.8.7-2.2.7-2.2-1.7.8-2.4,1.7-.6,3,3.8,2.8,10.1,4.5,15.9,2.9,0,0,11.3-3.1,23-2.2,11.8.8,21.6,2.9,26.2-7.3.9-2.1,1.1-4,.7-5.7Z"/>
            <path class="st66" d="M74,99.3c0,0,0-.1,0-.1h0Z"/>
          </g>
          <path class="st15" d="M21,83.4s1.7,6.3,3.6,7.2c0,0,.9-6.5,1.8-7.2s-5.5-.4-5.4,0Z"/>
          <path class="st19" d="M32.1,86.1s1.7,6.3,3.6,7.2c0,0,.9-6.5,1.8-7.2,1-.6-5.5-.4-5.4,0Z"/>
          <path class="st1" d="M43.4,83.8s1.7,6.3,3.6,7.2c0,0,.9-6.5,1.8-7.2,1-.6-5.5-.4-5.4,0Z"/>
          <path class="st25" d="M63,87.6s1.4,6.3,2.9,7.2c0,0,.7-6.5,1.5-7.2.8-.6-4.5-.4-4.4,0Z"/>
          <path class="st16" d="M73.1,88s1.4,6.3,2.9,7.2c0,0,.7-6.5,1.5-7.2.8-.6-4.5-.4-4.4,0Z"/>
          <path class="st6" d="M51.6,88.3s2.6,6,4.2,6.5c0,0-.5-6.6.2-7.3.7-.8-4.5.4-4.4.8Z"/>
          <path class="st21" d="M57.3,88.7s2.6,6,4.2,6.5c0,0-.5-6.6.2-7.3.7-.8-4.5.4-4.4.8Z"/>
          <path class="st62" d="M100,99.4v-.9c-.4-1.3-.4-2.5-.5-3.6-.1-1.5-.4-2.7-.5-3.8h0c-2.7-7.6-9.3-6.6-12.1-5.9-.7.2-1.2.4-1.2.4,0,0-.3,3.6-5.3,6.2-5,2.6-7.3,2-10.5,1-3.2-1-.3-1.5-7.9-1.4-7.6.1-10.2-1.5-10.2-1.5-5.3-4-8.7-3.1-8.7-3.1-8.8,2-11.1,1.4-13.3,0-2.2-1.4,1.4-2.9-5.7-1.9-4.5.6-5.5-1.3-5-4,0-.1,0-.2,0-.3.3-1.5.9-3.1,1.6-4.6,1.9-4.4,9.7-1.6,9.7-1.6,4.3.1,6.8,1,8.3,1.9.1,0,.3.2.4.3l.2-.6v-.2c2.5-1.9,9.4-.2,9.4-.2,2.4-1.2,10.7-.3,10.7-.3.2-.9,1.2-1.4,2.4-1.7,2.3-.6,5.5-.2,5.5-.2l3.1-6.8c.2,0-1.2-.3-1-.3,2.4.1,3.3,1.3,3.6,2.1.2.5.2.9.2.9l1.1-1.8h0c7.9-5.8,10.2-2.9,13.1-1.1,2.9,1.8,5.2,6.9,5.2,6.9l8.1,5.8c10.7,10.4-1.2,20.5-.8,20.5Z"/>
          <path class="st65" d="M23.4,80.1s-.3-3.2-1.6-2.5-1.1,1.9,1.6,2.5Z"/>
          <path class="st65" d="M32.8,81.5s6.8-2.6,5.7-.4c-1.1,2.2-3.9.9-5.7.4Z"/>
          <g>
            <path class="st52" d="M75.9,72.4c0,.1,0,.3,0,.4h0s0,0,0,0c0,0,0,0,0,.1t0,0c0,.9-.6,1.5-1.2,2,0,0-.1,0-.2.1-.5.4-1,.6-1.5.8-.8.3-1.5.5-1.5.5l-2-.9s-1.5-2.2.7-7.7c2.2-5.4,5.3,1.4,5.7,4.5Z"/>
            <path class="st71" d="M75.9,72.4c.3,2.3-2.4,3.6-4.4,4.1,0,0,0,0,0,0l-2-.8s0,0,0,0c0,0,0,0,0,0-1.1-2.2-.4-4.8.3-7,2.3-6.8,5.8.1,6.1,3.7h0ZM75.9,72.4c-.1-1.8-2.5-8.5-4.8-5.7-1.4,2.5-2.5,6-1.4,8.8,0,0,0,0,0,0,0,0,2.2,1,1.9.9,2-.4,4.6-1.6,4.4-4h0Z"/>
          </g>
          <path class="st10" d="M74.4,72.8c.3-1.5-.5-2.9-1.7-3.1-1.2-.2-2.4.9-2.6,2.4-.3,1.5.5,2.9,1.7,3.1,1.2.2,2.4-.9,2.6-2.4Z"/>
          <path class="st61" d="M72.8,72.4c0-1.2,0-2.1-.3-2.2-.2,0-.5.9-.6,2.1,0,1.2,0,2.1.3,2.2.2,0,.5-.9.6-2.1Z"/>
          <path class="st59" d="M78.8,68.4c-1.4,1.3-2.2,2.4-2.2,2.4.2-2.5-.2-3.8-.8-4.5,2,.1,2.7,1.3,3,2.1Z"/>
          <path class="st47" d="M99,99.3v-.9c.4-3.1.1-5.5,1-7.4h0c1.1-10-7-14.7-7-14.7l-1.1-4c-3.7-10.4-9.6-8-13.3-5h0c6.5-5.8,8.4-2.9,10.7-1.1,2.4,1.8,4.3,6.9,4.3,6.9l6.6,5.8c8.7,10.4-1,20.5-1.3,20.5Z"/>
          <path class="st47" d="M74.9,74.9c-.4.7-1.9,3.5-2.6,3.5-.6,0,.6-.5-1-2.4.5,0,1,0,1.6,0,0,0,.1,0,.2,0,.7-.1,1.4-.5,1.8-1.1Z"/>
          <path class="st39" d="M72.4,75.1"/>
          <path d="M43.4,79.6c0-.2-.3-.3-.4-.5-1.2-.9-2.6-1.6-3.9-2.4,1.2.5,2.4,1.1,3.4,1.9.3.3.8.5.9,1h0Z"/>
          <path d="M48.7,75.7c2.2.6,4.7,1.3,6.2,3.1-1.7-1.6-4.1-2.2-6.2-3.1h0Z"/>
          <g>
            <path class="st59" d="M63.8,77.4s-2.6-1.6-3.3-1.9"/>
            <path d="M63.8,77.4c-1-.4-2.3-1.3-3.3-1.9,1.2.4,2.3,1.1,3.3,1.9h0Z"/>
          </g>
          <path class="st47" d="M90.9,76.5c-.1-.6-.3-1.2-.4-1.8,0-.4,0-.8,0-1.2,0-.4,0-.8,0-1.2,0-.7,0-1.5-.2-2.2-.2-1-.5-2.1-1.2-2.9-.6-.6-1.3-1-2.1-1.1-.8-.2-1.6-.1-2.4,0-.8.2-1.6.6-2.3,1,0,0-.2,0-.3.1-3.6,2.3-.4,11.5-.4,11.5"/>
          <path class="st20" d="M83.3,76.5s-4.3-5.2-1.2-8.1c3.1-2.9,6.5-1.8,7.3,1.3.8,3.1-.8,5.4-1,5.9-.1.4-4.2,1.5-5.1.9Z"/>
          <path class="st52" d="M71.8,70.1c0,.7-.4,1.2-.8,1.1-.4,0-.6-.6-.5-1.3,0-.7.4-1.2.8-1.1.4,0,.6.6.5,1.3Z"/>
          <path class="st52" d="M73.4,74.3c0,.1,0,.3,0,.4-.1,0-.3,0-.4-.1,0-.1,0-.3,0-.4.1,0,.3,0,.4.1Z"/>
          <path class="st52" d="M89,72.6c0-2.6-1.5-4.7-3.4-4.7s-3.4,2.1-3.4,4.7,1.5,4.7,3.4,4.7,3.4-2.1,3.4-4.7Z"/>
          <path class="st62" d="M90.9,76.5c-9.7-.7-9.5,2.9-9.5,2.9,0,0-.8,1.8,2.5,1.4s6.8-2.3,6.8-2.3l.2-2Z"/>
          <path d="M81,80c.8-3.5,5.3-3.7,8.2-3.6,1.1,0,2.1.2,3.2.4-3.6-.3-10-1.1-11.4,3.2h0Z"/>
          <g>
            <path class="st33" d="M66.4,68.2s-.3,5.3,1.2,6.4c1.5,1,5.9,1.8,7.1,1.3,1.2-.5,2.8-6,2.8-6l-11.1-1.7Z"/>
            <path class="st33" d="M79.7,70.2s.8,5.3,2.5,6c1.7.7,6.2.6,7.2-.2,1.1-.8,1.5-6.4,1.5-6.4l-11.2.6Z"/>
            <polygon class="st32" points="76.8 72.5 79.8 72.5 79.7 71.2 77.2 71.2 76.8 72.5"/>
            <polygon class="st27" points="90.6 71.2 91.5 70.8 91.5 69.5 90.8 69.5 90.6 71.2"/>
            <polygon class="st32" points="91.5 71.2 103.1 69.9 102.5 68.9 91.5 69.9 91.5 71.2"/>
          </g>
          <g>
            <path class="st41" d="M69.2,68.3c4.1.5,8.4.4,12.3.4,5.1,0,10.4,0,15.4.9,1.3.3,11.6,4.1,11.9,3.5.4-.8,1.9-2.2,1.2-4s-19.4-6.3-26.6-7.2c-7.2-.8-16.6-.8-16.7,0-.2.8-10.7,1.6-9.7,2.3,3.6,2.5,7.8,3.5,12.1,4Z"/>
            <path class="st69" d="M71.1,67.5c3.9.4,7.9.3,11.7.3,4.9,0,9.8,0,14.6.7,1.2.2,11,3.3,11.2,2.8.3-.7,1.8-1.7,1.2-3.2-.7-1.5-18.3-5-25.1-5.7-6.8-.7-15.6-.7-15.8,0-.2.7-10.1,1.3-9.1,1.8,3.4,2,7.4,2.8,11.5,3.2Z"/>
            <g>
              <g>
                <path class="st41" d="M111.2,67.7c-.6.9-1.7,1.4-2.8,1.7-2.7.8-5.8.5-8.7.2-5.2-.6-10.3-1.5-15.4-2.8-1.8-.4-3.7-.9-5.3-1.8-1.7-.9-3.2-2.1-4.7-3.4-1-.9-2.1-1.8-3-2.7-.4-.4-.8-.8-1-1.3-.5-1-.2-2.2.2-3.2,1.1-3,3.1-5.7,5.8-7.8.7-.5,1.4-1,2.1-1.4,3-1.8,6.6-2.9,10.3-3.1,1.7,0,3.4.1,5.1.6,2.3.7,4.5,1.3,6.8,2,1,.3,2,.6,2.9,1,4,1.7,6.3,5.6,7.6,9.2.3.7.5,1.5.7,2.2.8,2.9.8,6,.2,8.8,0,0,0,0,0,.1-.1.6-.3,1.2-.7,1.7Z"/>
                <path class="st64" d="M111.7,57.1c-.3,1-.7,1.9-1.2,2.8-1.8,3.3-5.3,5.6-9.2,6.7-3.9,1.1-8.3.9-12.5,0-3.1-.7-6.1-1.8-8.7-3.5-2.6-1.7-4.6-4.2-5.5-6.9-.5-1.5-.6-3-.4-4.4.2-1.6.8-3.6,1.8-5.1.7-.5,1.4-1,2.1-1.4,3-1.8,6.6-2.9,10.3-3.1,1.7,0,3.4.1,5.1.6,2.3.7,4.5,1.3,6.8,2,1,.3,2,.6,2.9,1,4,1.7,6.3,5.6,7.6,9.2.3.7.5,1.5.7,2.2Z"/>
                <path class="st41" d="M106.6,47.8c-2.4-1.4-5.2-2-7.9-2-2.7,0-5.4.6-7.8,1.5-1.9.7-3.7,1.7-5.1,3-1.9,1.8-3.1,4.1-3.8,6.6-.8,2.4-1.2,4.9-1.9,7.4-.1.5-.3,1.1-.7,1.4-.6.5-1.6.6-2.4.3-.6-.2-1.1-.5-1.5-.8-1.1-1-2.3-2-3.3-3-.9-.9-1.9-1.6-2.8-2.4-.9-.9-.3-1.9.1-2.9,3.3-6.9,11-11.6,19.4-13.2,1.6-.3,3.2-.5,4.8-.5,3.6,0,7.2,1.1,10.3,2.8.2,0,.3.2.5.3.7.4,1.3.9,1.9,1.4,0,0,.1,0,.2.2Z"/>
                <path class="st41" d="M111.7,55.6c-.5.6-1.4-.4-1.9-.6-.9-.4-1.8-.6-2.7-.8-1.8-.3-3.7-.1-5.5.2-3,.5-6,1.5-8.4,3.1-.9.7-1.8,1.4-2.8,1.9-.2,0-.4.2-.6.2-.3,0-.5-.2-.7-.3-.5-.3-1-.7-1.5-1.1-.4-.3-1.1-.5-1.3-.9-.2-.4.3-1,.6-1.5,0,0,.1-.1.2-.2,1.8-2.6,4.6-3.9,7.8-4.8,3.6-1,7.5-1.2,11.3-.4,1.1.2,2.2.7,3.1,1.3.7.4,1.4.9,1.8,1.5.2.3.6,1.1.7,1.7,0,.2,0,.5-.1.6Z"/>
                <path class="st54" d="M111.8,55c0,0-.1,0-.2,0,0,0-1.1-.8-1.3-.9-.4-.2-.9-.3-1.4-.5-3.7-1.1-7.9-.7-11.4.4-.7.2-1.5.5-2.1.8-1.7.8-3.6,1.8-4.9,3-.2.2-.3.3-.6.4-1.1.2-2.7-1.2-3.1-2,0-.1,0-.3,0-.4,0,0,.1-.1.2-.2,1.8-2.6,4.6-3.9,7.8-4.8,3.6-1,7.5-1.2,11.3-.4,1.1.2,2.2.7,3.1,1.3.7.4,1.4.9,1.8,1.5.2.3.6,1.1.7,1.7Z"/>
                <path class="st54" d="M104,46c-.1,0-.3,0-.4,0-4.8-1.1-9-.7-13.3,1-3.1,1.2-5.8,3.1-7.7,5.6-1.1,1.4-1.9,3-2.6,4.6-.7,1.6-1.4,3.1-1.8,4.8-.3,1.2-.5,2.5-1,3.7,0,.1-.1.3-.2.4-.6-.2-1.1-.5-1.5-.8-1.1-1-2.3-2-3.3-3-.9-.9-1.9-1.6-2.8-2.4-.9-.9-.3-1.9.1-2.9,3.3-6.9,11-11.6,19.4-13.2,1.6-.3,3.2-.5,4.8-.5,3.6,0,7.2,1.1,10.3,2.8Z"/>
              </g>
              <path class="st41" d="M66.2,61.2s-1.5-.2-1.1.7c.4.9,2,2.3,5.1,2.8.7.1.2-.7.2-.7l-4.2-2.8Z"/>
              <path class="st41" d="M65.6,56.5s-1.6.3-.6,5.2c.2.8.8-.5.8-.5l-.2-4.7Z"/>
              <g>
                <path class="st41" d="M69.7,64.7l3.4.2s4.9-1.7,4.7-6.1c-.2-4.4-2.8-6.5-5.6-6.5"/>
                <path class="st69" d="M75.7,58.7c-.2,3.4-2.8,6-5.7,5.8-2.9-.2-5.2-3.1-5-6.5.2-3.4,2.8-6,5.7-5.8,2.9.2,5.2,3.1,4.9,6.5Z"/>
                <path class="st7" d="M74.1,58.6c-.1,2.4-1.9,4.2-4,4-2-.1-3.6-2.1-3.4-4.5.1-2.4,1.9-4.2,4-4,2,.1,3.6,2.1,3.4,4.5Z"/>
              </g>
            </g>
          </g>
          <path class="st57" d="M99.7,94.9c-.1-1.5-.4-2.7-.7-3.8h0c-2.4-7.6-9.1-6.6-11.8-5.9-.7.2-1.2.4-1.2.4,0,0-.3,3.6-5.3,6.2s-7.3,2-10.5,1c-3.2-1-.3-1.5-7.9-1.4-7.6.1-10.2-1.5-10.2-1.5-5.3-4-8.7-3.1-8.7-3.1-8.8,2-11.1,1.4-13.3,0-2.2-1.4,1.4-2.9-5.7-1.9-4.7.7-5.5-1.5-5-4.3h0c.7.4,1.6.7,3,.8,4.1.2,9.7,1.7,9.9,3.5.2,1.8,18-3.2,18.9,0,.9,3.2,14.4,3.4,19.2,4.5,4.7,1,6.1,3,14.8-4.5,0,0,10.2-6.7,14.9,6.4.4,1.2.3,2.4-.3,3.5Z"/>
          <path class="st47" d="M85.7,85.7s-.3,3.6-5.3,6.2-7.3,2-10.5,1c-3.2-1-.3-1.5-7.9-1.4-7.6.1-10.2-1.5-10.2-1.5-5.3-4-8.7-3.1-8.7-3.1-8.8,2-11.1,1.4-13.3,0-2.2-1.4,1.4-2.9-5.7-1.9-4.5.6-5.5-1.3-5-4,.7.8,1.6,1.5,3.1,1.7,4.3.7,7.4-1.5,8.9,3.9,0,0,3.6,1.1,11.5-.9,8-2,7,1.5,7,1.5,0,0,3.3,2,9.8,2.2,6.4.2,7.4-.1,12.3,2,4.8,2.1,13.5-4.4,14.1-5.7Z"/>
          <path class="st39" d="M55.8,102.4c.7.6,1.1,2.1,0,2.6.9-.7.4-1.8,0-2.6h0Z"/>
          <path class="st39" d="M64.3,103.5c.6-1.4,1-3.1.2-4.6,1.1,1.3.7,3.3-.2,4.6h0Z"/>
          <path class="st39" d="M72.7,103.4c.9-1.6,2.2-3.6,1.3-5.5,1.2,1.8-.2,4-1.3,5.5h0Z"/>
          <path class="st39" d="M80.8,103.4c.9-1.7,1.9-3.4,2.3-5.3.1-.6.1-1.3-.2-1.9.4.5.4,1.2.3,1.9-.3,1.9-1.3,3.7-2.4,5.2h0Z"/>
          <path class="st45" d="M92.8,100.4"/>
          <path class="st39" d="M89.1,104.2c1.3-2.9,2.6-5.8,3.5-8.8.2-1,.6-2.1.2-3.1.5.9.2,2.1,0,3.1-.8,3.1-2.1,6-3.6,8.8h0Z"/>
          <path class="st57" d="M105.5,108.3c.1.7-.2,1.3-.8,1.4-.6.1-1.2-.4-1.3-1-.1-.7.2-1.3.8-1.4.6-.1,1.2.4,1.3,1Z"/>
          <path class="st48" d="M108,84.1c.1.7-.2,1.3-.8,1.4-.6.1-1.2-.4-1.3-1-.1-.7.2-1.3.8-1.4.6-.1,1.2.4,1.3,1Z"/>
          <path class="st48" d="M97.9,76.9c0,.3-.2.6-.4.6s-.4-.2-.4-.6.2-.6.4-.6.4.2.4.6Z"/>
          <path class="st57" d="M97.2,72.5c.1.3,0,.6-.1.7-.2.1-.5,0-.6-.3-.1-.3,0-.6.1-.7.2-.1.5,0,.6.3Z"/>
          <path class="st43" d="M101.3,80.4c-.1.3-.4.5-.6.5-.2,0-.3-.4-.1-.8.1-.3.4-.5.6-.5.2,0,.3.4.1.8Z"/>
          <path class="st43" d="M106.5,78.2c-.1.3-.4.5-.6.5-.2,0-.3-.4-.1-.8.1-.3.4-.5.6-.5.2,0,.3.4.1.8Z"/>
          <path class="st57" d="M103.6,86.8c-.1.3-.4.5-.6.5-.2,0-.3-.4-.1-.8.1-.3.4-.5.6-.5.2,0,.3.4.1.8Z"/>
          <path class="st43" d="M109.5,118.7c-.1.3-.4.5-.6.5-.2,0-.3-.4-.1-.8.1-.3.4-.5.6-.5.2,0,.3.4.1.8Z"/>
          <path class="st48" d="M104.9,112c-.1.3-.4.5-.6.5-.2,0-.3-.4-.1-.8.1-.3.4-.5.6-.5.2,0,.3.4.1.8Z"/>
          <path class="st43" d="M107.3,90.2c-.1.3-.4.5-.6.5-.2,0-.3-.4-.1-.8.1-.3.4-.5.6-.5.2,0,.3.4.1.8Z"/>
          <path class="st43" d="M109.5,111.4c-.1.3-.4.5-.6.5-.2,0-.3-.4-.1-.8.1-.3.4-.5.6-.5.2,0,.3.4.1.8Z"/>
          <path class="st43" d="M99.9,74.9c-.1.3-.4.5-.6.5-.2,0-.3-.4-.1-.8.1-.3.4-.5.6-.5.2,0,.3.4.1.8Z"/>
          <path class="st43" d="M108.1,76.4c0,.2-.2.4-.4.4s-.4-.2-.4-.4.2-.4.4-.4.4.2.4.4Z"/>
          <path class="st48" d="M104.9,73.9c0,.6-.5,1.1-1.1,1.1s-1.1-.5-1.1-1.1.5-1.1,1.1-1.1,1.1.5,1.1,1.1Z"/>
          <path class="st43" d="M106.5,100.9c0,.6-.5,1.1-1.1,1.1s-1.1-.5-1.1-1.1.5-1.1,1.1-1.1,1.1.5,1.1,1.1Z"/>
          <path class="st57" d="M103.9,77.6c0,.8-.5,1.4-1.1,1.4s-1.1-.6-1.1-1.4.5-1.4,1.1-1.4,1.1.6,1.1,1.4Z"/>
          <path class="st48" d="M109.1,107.3c0,.8-.5,1.4-1.1,1.4s-1.1-.6-1.1-1.4.5-1.4,1.1-1.4,1.1.6,1.1,1.4Z"/>
          <path class="st57" d="M111.6,114.3c0,.8-.5,1.4-1.1,1.4s-1.1-.6-1.1-1.4.5-1.4,1.1-1.4,1.1.6,1.1,1.4Z"/>
          <path class="st43" d="M106.8,80.7c-.2.5-.6.9-1,.7-.4-.1-.5-.7-.3-1.2.2-.5.6-.9,1-.7.4.1.5.7.3,1.2Z"/>
          <path class="st48" d="M101.3,88.2c.1.5,0,1.1-.4,1.2-.4.1-.8-.3-1-.8-.1-.5,0-1.1.4-1.2.4-.1.8.3,1,.8Z"/>
          <path class="st43" d="M103.5,82.9c.1.5,0,1.1-.4,1.2-.4.1-.8-.3-1-.8-.1-.5,0-1.1.4-1.2.4-.1.8.3,1,.8Z"/>
          <path class="st57" d="M106.5,92.6c.1.5,0,1.1-.4,1.2-.4.1-.8-.3-1-.8-.1-.5,0-1.1.4-1.2.4-.1.8.3,1,.8Z"/>
          <path class="st43" d="M107.3,109.8c.1.5,0,1.1-.4,1.2-.4.1-.8-.3-1-.8-.1-.5,0-1.1.4-1.2.4-.1.8.3,1,.8Z"/>
          <path class="st43" d="M105.2,115.1c.1.5,0,1.1-.4,1.2-.4.1-.8-.3-1-.8-.1-.5,0-1.1.4-1.2.4-.1.8.3,1,.8Z"/>
          <path class="st61" d="M52.2,100.5c2.3-.6,4-2.1,5.7-3.7,1.7-1.7,4.2-2.1,6.5-2.1-2.3.3-4.6.6-6.3,2.3-1.6,1.6-3.6,3.1-5.9,3.5h0Z"/>
          <path class="st44" d="M52,98.4s4.6-3.8,6.7-4.7,4.1-1.1,4.4-1c.3.2-.3.9-1,1-.6,0-2.8.6-3.9,1.3-1.1.7-2.1,1.9-3,2.4s-3.9,2.6-3.9,2.1.6-1.1.6-1.1Z"/>
          <path class="st46" d="M71.9,58.7c0,1.7-.8,3.1-1.8,3.1s-1.8-1.4-1.8-3.1.8-3.1,1.8-3.1,1.8,1.4,1.8,3.1Z"/>
          <path class="st53" d="M71.4,58.7c0,1.1-.6,2.1-1.3,2.1s-1.3-.9-1.3-2.1.6-2.1,1.3-2.1,1.3.9,1.3,2.1Z"/>
          <path class="st51" d="M70.6,58.7c0,.4-.2.8-.5.8s-.5-.4-.5-.8.2-.8.5-.8.5.4.5.8Z"/>
          <path class="st47" d="M44.5,80.5c0,.3-1.3-.8-2.1-2,1.1.9,2,1.7,2.1,2Z"/>
          <path class="st47" d="M61.6,77.3l-3.7-1.2c-8.7-.2-5.2,2-5.2,2-11.2-3.8-11.5-1.6-10.2.4-.9-.7-2-1.6-3-2.3v-.2c2.5-1.9,9.4-.2,9.4-.2,2.4-1.2,10.7-.3,10.7-.3.2-.9,1.2-1.4,2.4-1.7-.9,1.4-.2,3.6-.2,3.6Z"/>
          <path class="st47" d="M58.3,82.4s4.8,0,8.4-1.6,10-.8,11.6-.8-6.9,1.1-9.1,1.6c-2.1.5-16.4.9-16.5.7-.1-.3,5.6,0,5.6,0Z"/>
          <path class="st10" d="M87.5,73.2c.1-1.5-.8-2.9-2-3-1.2,0-2.3,1.1-2.4,2.6-.1,1.5.8,2.9,2,3,1.2,0,2.3-1.1,2.4-2.6Z"/>
          <path class="st61" d="M85.7,73c0-1.2,0-2.1-.3-2.2-.2,0-.5.9-.6,2.1,0,1.2,0,2.1.3,2.2.2,0,.5-.9.6-2.1Z"/>
          <path class="st52" d="M84.7,70.7c0,.7-.4,1.2-.8,1.1-.4,0-.6-.6-.5-1.3,0-.7.4-1.2.8-1.1.4,0,.6.6.5,1.3Z"/>
          <path class="st52" d="M86.4,74.9c0,.1,0,.3,0,.4-.1,0-.3,0-.4-.1,0-.1,0-.3,0-.4.1,0,.3,0,.4,0Z"/>
        </g>
      </g>
      <g>
        <path class="st61" d="M34.9,45.2l1.5-1.7,5.2,2.2-3-4.8,1.4-1.7,7.5,5-1.2,1.4-5.3-3.5,3.5,5.6-.6.7-6.1-2.6,4.3,4.7-1.2,1.4-6.1-6.7Z"/>
        <path class="st61" d="M43.5,36.2l2.4-1.7c.7-.5,1.4-.8,2.1-.7.7,0,1.3.4,1.8,1.1.3.4.5.8.5,1.4,0,.5,0,1.1-.4,1.7l4.2,1.6-1.8,1.3-3.9-1.5h-.2c0,.1,2,2.9,2,2.9l-1.6,1.1-5.3-7.3ZM46,36.4l1.4,1.9.3-.2c.8-.6,1-1.2.5-1.9-.2-.3-.5-.4-.8-.4-.3,0-.7.1-1.1.4l-.4.3Z"/>
        <path class="st61" d="M55,38.1c-.1-.3-.2-.5,0-.8,0-.3.3-.5.5-.6s.5-.2.8,0c.3,0,.5.3.6.5.1.3.2.5,0,.8,0,.3-.3.5-.5.6-.3.1-.5.2-.8,0-.3,0-.5-.3-.6-.5Z"/>
        <path class="st61" d="M63.1,26l1.4-.4,6,7.6-1.9.5-1.2-1.5-3.3.9-.2,1.9-1.9.5,1-9.6ZM64.7,28.6l-.3,2.8,2.1-.6-1.8-2.2Z"/>
        <path class="st61" d="M70.8,24.2l1.9-.3,1,7,2.6-.4.3,1.9-4.5.7-1.3-8.9Z"/>
        <path class="st61" d="M77.8,23.3h1.9c0-.1.4,6.9.4,6.9h2.6c0-.1.1,1.8.1,1.8l-4.6.2-.5-9Z"/>
        <path class="st61" d="M84.1,23h1.9s-.1,9-.1,9h-1.9s.1-9,.1-9Z"/>
        <path class="st61" d="M96.7,26l-1.4,1c-.2-.5-.5-.9-.9-1.2-.4-.3-.8-.4-1.2-.5-.7,0-1.3.1-1.9.6-.6.5-.9,1.1-1,1.8,0,.8,0,1.4.5,2,.4.6,1,.9,1.8,1,.4,0,.8,0,1.2-.2.4-.2.7-.5,1-1l-2.1-.3.2-1.7,4.1.5v1.2c-.2.6-.5,1.2-1,1.8-.5.6-1.1,1.1-1.8,1.3-.7.2-1.4.3-2.1.2-1.2-.1-2.2-.7-3-1.7-.7-1-1-2.1-.9-3.5.2-1.2.7-2.3,1.7-3,1-.8,2.1-1.1,3.3-.9,1.6.2,2.7,1,3.4,2.5Z"/>
        <path class="st61" d="M103.4,25.7l1.4.4.9,9.7-1.9-.6-.2-1.9-3.3-1-1.2,1.5-1.9-.6,6-7.5ZM103.3,28.7l-1.8,2.2,2,.6-.3-2.8Z"/>
        <path class="st61" d="M109.6,27.8l5.4,2.6-.8,1.7-1.9-.9-3.1,6.4-1.7-.8,3.1-6.4-1.8-.9.8-1.7Z"/>
        <path class="st61" d="M114.7,35.2c.8-1.1,1.8-1.7,3-1.8,1.2-.2,2.3.1,3.3.8,1.1.8,1.7,1.8,1.9,3,.2,1.2-.1,2.4-.9,3.4-.8,1.1-1.8,1.7-3,1.9-1.2.2-2.3-.1-3.4-.9-1-.8-1.7-1.8-1.8-3-.2-1.2.2-2.3,1-3.4ZM120,35.7c-.6-.5-1.2-.6-1.9-.5-.7.2-1.3.6-1.8,1.2-.5.6-.7,1.3-.6,2,0,.7.4,1.3,1,1.7.6.5,1.2.6,1.9.5.7-.1,1.3-.5,1.8-1.2.5-.7.7-1.3.7-2,0-.7-.4-1.2-1-1.7Z"/>
        <path class="st61" d="M127.2,39.6l1.9,2.3c.6.7.9,1.4.8,2.1,0,.7-.3,1.3-1,1.8-.4.3-.8.5-1.3.6-.5.1-1.1,0-1.7-.3l-1.3,4.3-1.4-1.7,1.2-4v-.2c-.1,0-2.8,2.2-2.8,2.2l-1.2-1.5,6.9-5.8ZM127.2,42.1l-1.8,1.5.3.3c.6.8,1.3.9,1.9.4.3-.2.4-.5.4-.8,0-.3-.2-.7-.5-1l-.3-.3Z"/>
      </g>
      <g>
        <path class="st23" d="M35.9,45.2l1.5-1.7,5.2,2.2-3-4.8,1.4-1.7,7.5,5-1.2,1.4-5.3-3.5,3.5,5.6-.6.7-6.1-2.6,4.3,4.7-1.2,1.4-6.1-6.7Z"/>
        <path class="st23" d="M44.5,36.2l2.4-1.7c.7-.5,1.4-.8,2.1-.7.7,0,1.3.4,1.8,1.1.3.4.5.8.5,1.4,0,.5,0,1.1-.4,1.7l4.2,1.6-1.8,1.3-3.9-1.5h-.2c0,.1,2,2.9,2,2.9l-1.6,1.1-5.3-7.3ZM47,36.4l1.4,1.9.3-.2c.8-.6,1-1.2.5-1.9-.2-.3-.5-.4-.8-.4-.3,0-.7.1-1.1.4l-.4.3Z"/>
        <path class="st23" d="M56,38.1c-.1-.3-.2-.5,0-.8,0-.3.3-.5.5-.6s.5-.2.8,0c.3,0,.5.3.6.5.1.3.2.5,0,.8,0,.3-.3.5-.5.6-.3.1-.5.2-.8,0-.3,0-.5-.3-.6-.5Z"/>
        <path class="st23" d="M64.1,26l1.4-.4,6,7.6-1.9.5-1.2-1.5-3.3.9-.2,1.9-1.9.5,1-9.6ZM65.7,28.6l-.3,2.8,2.1-.6-1.8-2.2Z"/>
        <path class="st23" d="M71.8,24.2l1.9-.3,1,7,2.6-.4.3,1.9-4.5.7-1.3-8.9Z"/>
        <path class="st23" d="M78.8,23.3h1.9c0-.1.4,6.9.4,6.9h2.6c0-.1.1,1.8.1,1.8l-4.6.2-.5-9Z"/>
        <path class="st23" d="M85.1,23h1.9s-.1,9-.1,9h-1.9s.1-9,.1-9Z"/>
        <path class="st23" d="M97.7,26l-1.4,1c-.2-.5-.5-.9-.9-1.2-.4-.3-.8-.4-1.2-.5-.7,0-1.3.1-1.9.6-.6.5-.9,1.1-1,1.8,0,.8,0,1.4.5,2,.4.6,1,.9,1.8,1,.4,0,.8,0,1.2-.2.4-.2.7-.5,1-1l-2.1-.3.2-1.7,4.1.5v1.2c-.2.6-.5,1.2-1,1.8-.5.6-1.1,1.1-1.8,1.3-.7.2-1.4.3-2.1.2-1.2-.1-2.2-.7-3-1.7-.7-1-1-2.1-.9-3.5.2-1.2.7-2.3,1.7-3,1-.8,2.1-1.1,3.3-.9,1.6.2,2.7,1,3.4,2.5Z"/>
        <path class="st23" d="M104.4,25.7l1.4.4.9,9.7-1.9-.6-.2-1.9-3.3-1-1.2,1.5-1.9-.6,6-7.5ZM104.3,28.7l-1.8,2.2,2,.6-.3-2.8Z"/>
        <path class="st23" d="M110.6,27.8l5.4,2.6-.8,1.7-1.9-.9-3.1,6.4-1.7-.8,3.1-6.4-1.8-.9.8-1.7Z"/>
        <path class="st23" d="M115.7,35.2c.8-1.1,1.8-1.7,3-1.8,1.2-.2,2.3.1,3.3.8,1.1.8,1.7,1.8,1.9,3,.2,1.2-.1,2.4-.9,3.4-.8,1.1-1.8,1.7-3,1.9-1.2.2-2.3-.1-3.4-.9-1-.8-1.7-1.8-1.8-3-.2-1.2.2-2.3,1-3.4ZM121,35.7c-.6-.5-1.2-.6-1.9-.5-.7.2-1.3.6-1.8,1.2-.5.6-.7,1.3-.6,2,0,.7.4,1.3,1,1.7.6.5,1.2.6,1.9.5.7-.1,1.3-.5,1.8-1.2.5-.7.7-1.3.7-2,0-.7-.4-1.2-1-1.7Z"/>
        <path class="st23" d="M128.2,39.6l1.9,2.3c.6.7.9,1.4.8,2.1,0,.7-.3,1.3-1,1.8-.4.3-.8.5-1.3.6-.5.1-1.1,0-1.7-.3l-1.3,4.3-1.4-1.7,1.2-4v-.2c-.1,0-2.8,2.2-2.8,2.2l-1.2-1.5,6.9-5.8ZM128.2,42.1l-1.8,1.5.3.3c.6.8,1.3.9,1.9.4.3-.2.4-.5.4-.8,0-.3-.2-.7-.5-1l-.3-.3Z"/>
      </g>
      <text></text>
      <g>
        <path class="st61" d="M47.4,115.7l2.2,2c.7.6,1,1.3,1.1,2,0,.7-.2,1.3-.7,1.9-.3.3-.7.6-1.2.8-.5.2-1.1.2-1.8,0l-.7,4.5-1.6-1.5.7-4.1h-.2c0-.1-2.4,2.4-2.4,2.4l-1.4-1.3,6.1-6.6ZM47.7,118.2l-1.6,1.7.3.3c.7.7,1.4.7,2,.1.2-.2.3-.5.3-.9,0-.3-.3-.6-.6-1l-.3-.3Z"/>
        <path class="st61" d="M53.2,120.9l4.1,3-1.1,1.4-2.5-1.8-1.1,1.5,2.5,1.8-1,1.4-2.5-1.8-1.1,1.5,2.5,1.8-1.1,1.4-4.1-3,5.3-7.2Z"/>
        <path class="st61" d="M63.4,127.4l1.7.9-4.3,7.9-1.7-.9-.8-7.1-2.8,5.1-1.7-.9,4.3-7.9,1.7.9.9,7,2.7-5.1Z"/>
        <path class="st61" d="M64.5,133c.4-1.3,1.1-2.2,2.2-2.8,1.1-.6,2.2-.7,3.4-.3,1.3.4,2.2,1.1,2.8,2.2.6,1.1.7,2.3.3,3.5-.4,1.3-1.1,2.2-2.2,2.8-1.1.6-2.2.7-3.5.3-1.3-.4-2.2-1.1-2.7-2.2-.6-1.1-.6-2.2-.3-3.5ZM69.7,131.7c-.7-.2-1.4-.2-2,.2-.6.4-1,1-1.3,1.8-.2.8-.2,1.5,0,2.1.3.6.8,1.1,1.5,1.3.7.2,1.4.1,2-.2.6-.4,1-.9,1.3-1.8.2-.8.2-1.5,0-2.1-.3-.6-.8-1-1.5-1.3Z"/>
        <path class="st61" d="M74.3,131.3h2c0,.1,1.8,6.3,1.8,6.3l2.7-5.8h2c0,.1-4,8.8-4,8.8h-1.7c0-.1-2.7-9.3-2.7-9.3Z"/>
        <path class="st61" d="M85.3,131.5l1.5-.2,4.5,8.6-1.9.2-.9-1.7-3.4.3-.5,1.8-1.9.2,2.7-9.3ZM86.3,134.4l-.8,2.7,2.1-.2-1.3-2.5Z"/>
        <path class="st61" d="M89.9,131l5.9-1.3.4,1.9-2,.4,1.5,6.9-1.9.4-1.5-6.9-2,.4-.4-1.9Z"/>
        <path class="st61" d="M96.7,129.4l1.9-.6,2.6,8.6-1.9.6-2.6-8.6Z"/>
        <path class="st61" d="M101.5,132.8c-.5-1.2-.6-2.4-.1-3.5.5-1.1,1.2-2,2.3-2.4,1.2-.5,2.4-.6,3.5-.1,1.1.4,2,1.3,2.5,2.5.5,1.2.6,2.4.1,3.5-.4,1.1-1.3,2-2.5,2.5-1.2.5-2.4.6-3.5.1s-2-1.3-2.5-2.5ZM104.5,128.4c-.7.3-1.1.8-1.4,1.4-.2.7-.1,1.4.2,2.2.3.7.8,1.2,1.4,1.5.6.3,1.3.3,1.9,0,.7-.3,1.1-.8,1.4-1.4.2-.7.2-1.4-.2-2.2-.3-.8-.8-1.3-1.4-1.6-.6-.3-1.3-.3-2,0Z"/>
        <path class="st61" d="M113.8,121.2l1.6-1.1,5,7.4-1.6,1.1-6.6-2.5,3.2,4.8-1.6,1.1-5-7.4,1.6-1.1,6.6,2.5-3.2-4.8Z"/>
        <path class="st61" d="M120,116.4v1.8c-.7.2-1.2.3-1.4.5-.2.1-.2.3-.2.6,0,.2,0,.4.2.6.3.3.9.3,1.7,0,.6-.2,1.1-.4,1.4-.4.4,0,.7,0,1.1,0,.4.1.7.3,1,.6.5.6.8,1.3.7,2.1,0,.8-.4,1.6-1,2.1-.7.6-1.6.9-2.9.9v-2c.7,0,1.3-.1,1.7-.5.2-.2.3-.4.3-.7,0-.3,0-.5-.2-.7-.3-.3-1-.3-1.9.1-.6.2-1,.4-1.3.4-.3,0-.6,0-1-.2-.4-.1-.7-.3-.9-.6-.5-.6-.8-1.2-.8-1.9,0-.7.4-1.4,1-1.9.7-.7,1.5-1,2.5-1Z"/>
      </g>
      <g>
        <path class="st23" d="M48.4,115.7l2.2,2c.7.6,1,1.3,1.1,2,0,.7-.2,1.3-.7,1.9-.3.3-.7.6-1.2.8-.5.2-1.1.2-1.8,0l-.7,4.5-1.6-1.5.7-4.1h-.2c0-.1-2.4,2.4-2.4,2.4l-1.4-1.3,6.1-6.6ZM48.7,118.2l-1.6,1.7.3.3c.7.7,1.4.7,2,.1.2-.2.3-.5.3-.9,0-.3-.3-.6-.6-1l-.3-.3Z"/>
        <path class="st23" d="M54.2,120.9l4.1,3-1.1,1.4-2.5-1.8-1.1,1.5,2.5,1.8-1,1.4-2.5-1.8-1.1,1.5,2.5,1.8-1.1,1.4-4.1-3,5.3-7.2Z"/>
        <path class="st23" d="M64.4,127.4l1.7.9-4.3,7.9-1.7-.9-.8-7.1-2.8,5.1-1.7-.9,4.3-7.9,1.7.9.9,7,2.7-5.1Z"/>
        <path class="st23" d="M65.5,133c.4-1.3,1.1-2.2,2.2-2.8,1.1-.6,2.2-.7,3.4-.3,1.3.4,2.2,1.1,2.8,2.2.6,1.1.7,2.3.3,3.5-.4,1.3-1.1,2.2-2.2,2.8-1.1.6-2.2.7-3.5.3-1.3-.4-2.2-1.1-2.7-2.2-.6-1.1-.6-2.2-.3-3.5ZM70.7,131.7c-.7-.2-1.4-.2-2,.2-.6.4-1,1-1.3,1.8-.2.8-.2,1.5,0,2.1.3.6.8,1.1,1.5,1.3.7.2,1.4.1,2-.2.6-.4,1-.9,1.3-1.8.2-.8.2-1.5,0-2.1-.3-.6-.8-1-1.5-1.3Z"/>
        <path class="st23" d="M75.3,131.3h2c0,.1,1.8,6.3,1.8,6.3l2.7-5.8h2c0,.1-4,8.8-4,8.8h-1.7c0-.1-2.7-9.3-2.7-9.3Z"/>
        <path class="st23" d="M86.3,131.5l1.5-.2,4.5,8.6-1.9.2-.9-1.7-3.4.3-.5,1.8-1.9.2,2.7-9.3ZM87.3,134.4l-.8,2.7,2.1-.2-1.3-2.5Z"/>
        <path class="st23" d="M90.9,131l5.9-1.3.4,1.9-2,.4,1.5,6.9-1.9.4-1.5-6.9-2,.4-.4-1.9Z"/>
        <path class="st23" d="M97.7,129.4l1.9-.6,2.6,8.6-1.9.6-2.6-8.6Z"/>
        <path class="st23" d="M102.5,132.8c-.5-1.2-.6-2.4-.1-3.5.5-1.1,1.2-2,2.3-2.4,1.2-.5,2.4-.6,3.5-.1,1.1.4,2,1.3,2.5,2.5.5,1.2.6,2.4.1,3.5-.4,1.1-1.3,2-2.5,2.5-1.2.5-2.4.6-3.5.1s-2-1.3-2.5-2.5ZM105.5,128.4c-.7.3-1.1.8-1.4,1.4-.2.7-.1,1.4.2,2.2.3.7.8,1.2,1.4,1.5.6.3,1.3.3,1.9,0,.7-.3,1.1-.8,1.4-1.4.2-.7.2-1.4-.2-2.2-.3-.8-.8-1.3-1.4-1.6-.6-.3-1.3-.3-2,0Z"/>
        <path class="st23" d="M114.8,121.2l1.6-1.1,5,7.4-1.6,1.1-6.6-2.5,3.2,4.8-1.6,1.1-5-7.4,1.6-1.1,6.6,2.5-3.2-4.8Z"/>
        <path class="st23" d="M121,116.4v1.8c-.7.2-1.2.3-1.4.5-.2.1-.2.3-.2.6,0,.2,0,.4.2.6.3.3.9.3,1.7,0,.6-.2,1.1-.4,1.4-.4.4,0,.7,0,1.1,0,.4.1.7.3,1,.6.5.6.8,1.3.7,2.1,0,.8-.4,1.6-1,2.1-.7.6-1.6.9-2.9.9v-2c.7,0,1.3-.1,1.7-.5.2-.2.3-.4.3-.7,0-.3,0-.5-.2-.7-.3-.3-1-.3-1.9.1-.6.2-1,.4-1.3.4-.3,0-.6,0-1-.2-.4-.1-.7-.3-.9-.6-.5-.6-.8-1.2-.8-1.9,0-.7.4-1.4,1-1.9.7-.7,1.5-1,2.5-1Z"/>
      </g>
      <path class="st3" d="M38,75.2"/>
      <path class="st2" d="M37.3,73.2"/>
      <path class="st47" d="M40.3,81.1s.9-2.5-5.4-2c-6.3.5-8.2,3.1-9.2.9s-4.1-4.7-5-2.5,2.8,4.1,2.8,4.1c-1.2-.4,15.1,3.8,16.9-.6Z"/>
      <path class="st30" d="M148.4,82.6c0,12.8-3.7,24.8-10.2,34.9-1,1.6-2.1,3.1-3.2,4.6-11.8,15.4-30.5,25.4-51.4,25.4s-42.9-11.8-54.5-29.6c-6.5-10.1-10.3-22.2-10.3-35.2s2.9-22.1,8.1-31.4c11.1-19.9,32.3-33.4,56.7-33.4s57,21.8,63.3,51c.4,2,.8,4,1,6,.3,2.6.5,5.2.5,7.8Z"/>
      <circle class="st3" cx="83.6" cy="82.6" r="43.8" transform="translate(-11.3 151.9) rotate(-80.8)"/>
      <g class="st58">
        <g>
          <g>
            <path class="st65" d="M108.8,83.7s4.8-2.4,3.2-3.4-6.7-2.3-6.7-2.3c0,0-.3,4,0,4.8.3.8,3.5.9,3.5.9Z"/>
            <path class="st65" d="M108.1,89.5s4.8-2.4,3.2-3.4-6.7-2.3-6.7-2.3c0,0-.3,4,0,4.8.3.8,3.5.9,3.5.9Z"/>
            <path class="st65" d="M106.2,96.1s5.1-3.4,2.6-4.6c-2.5-1.2-6-2.1-6-2.1,0,0,1.3,6.3,3.5,6.8Z"/>
            <path class="st65" d="M110.4,115.1s5.1-3.4,2.6-4.6c-2.5-1.2-6-2.1-6-2.1,0,0,1.3,6.3,3.5,6.8Z"/>
            <path class="st65" d="M108.1,102.3s4.8-2.4,3.2-3.4-6.7-2.3-6.7-2.3c0,0-.3,4,0,4.8.3.8,3.5.9,3.5.9Z"/>
            <path class="st65" d="M109.6,108.5s5.1-3.4,2.6-4.6c-2.5-1.2-6-2.1-6-2.1,0,0,1.3,6.3,3.5,6.8Z"/>
            <path class="st65" d="M108.8,78.4s4.8-2.4,3.2-3.4-6.7-2.3-6.7-2.3c0,0-.3,4,0,4.8.3.8,3.5.9,3.5.9Z"/>
          </g>
          <path class="st62" d="M112.5,116.2c.1.5-.4,1.3-1.3,2.4-3.9,4.3-17.7,4.4-28,9.8-.4.2-.9.4-1.3.7-.3.2-.6.3-.8.4-.4.2-.7.4-1.1.5-.3.1-.5.3-.8.4-.1,0-.3.1-.4.2-.3.1-.5.3-.8.4-1.3.6-2.6,1.1-3.8,1.5-.3.1-.6.2-.9.3-.2,0-.4.1-.6.2-.1,0-.3,0-.4.1h0c-.2,0-.3,0-.5.1-.2,0-.3,0-.5.1,0,0,0,0-.1,0,0,0,0,0,0,0-.2,0-.4,0-.6.1-.2,0-.3,0-.4,0-.1,0-.3,0-.4,0-.1,0-.3,0-.4,0-2.2.1-3.6-.5-4-2.1-2.5-10.2,4.6-19.2,4.6-19.2-.3-2.8-.2-5.4.1-7.6,0-.3,0-.5.1-.7.2-.9.4-1.8.6-2.6,0-.3.2-.5.2-.8,0-.3.2-.5.3-.8.2-.5.4-1,.5-1.4,0-.1,0-.2.1-.3h0c0-.1.1-.2.2-.4,0-.2.2-.4.3-.6,0-.2.2-.4.3-.6.1-.2.2-.4.3-.5.3-.5.5-.9.8-1.3.2-.3.4-.6.6-.9.2-.2.3-.5.5-.6,0-.1.2-.2.2-.3.5-.6.8-.9.8-.9,1.2-13.2,7.5-10.2,5-11.7-2.5-1.5-2.4-9.5-2.4-9.5l2.9-1.1,8.6-3.4s.8,0,1.8.2c1.8.2,4.3.5,4.3.5,0,0-1.3.3-.4,1.9.9,1.7,8.3.6,8.3.6,0,0,9.1,3.6,5,13.1-1.6,3.6-1.1,19.1-1.1,19.1,0,0,3.7,10.6,4.6,14.8Z"/>
          <path class="st13" d="M83.8,112.2c-.5,2.3-3.2,8.9-.5,15.3-.4.2-.9.4-1.3.7-.3.2-.6.3-.8.4-.3.2-.7.3-1,.5-.3.1-.5.3-.8.4-.1,0-.3.1-.4.2-.3.1-.5.2-.8.4-1.3.6-2.6,1.1-3.8,1.5-.3,0-.6.2-.9.3-.2,0-.4.1-.6.2-.1,0-.3,0-.4.1h0c-.2,0-.3,0-.5.1-.2,0-.3,0-.5.1,0,0,0,0-.1,0,0,0,0,0,0,0-.2,0-.4,0-.6,0-.1,0-.3,0-.4,0-.1,0-.3,0-.4,0-.1,0-.2,0-.4,0-2.1.1-3.6-.5-4-2.1-2.5-10.1,4.6-19,4.6-19-.3-2.8-.2-5.3.1-7.5,0-.2,0-.5.1-.7.2-.9.4-1.8.6-2.6,0-.3.2-.5.2-.8,0-.2.2-.5.2-.8.2-.5.4-.9.5-1.4,0,0,0-.2.1-.3,0-.1.1-.2.2-.4,0-.2.2-.4.3-.6,0-.2.2-.4.3-.6,0-.2.2-.4.3-.5.3-.5.5-.9.8-1.3.2-.3.4-.6.6-.9.2-.2.3-.5.5-.6,0-.1.1-.2.2-.3l8.4,8.1s.9,8.6.2,11.9Z"/>
          <path class="st50" d="M80,99.8s-2.3,2-4,3.8h0c-1,1.1-1.9,2.2-1.9,2.8,0,1.6,2,7.8-.5,8.7-2.5.9-3,5.4-4.4,7.4-1.4,2,2.9,5.2,1.2,6-1,.4.6,2.5,2,4.1-.2,0-.3,0-.5.1-.2,0-.3,0-.5.1,0,0,0,0-.1,0,0,0,0,0,0,0-.2,0-.4,0-.6,0-.1,0-.3,0-.4,0-.1,0-.3,0-.4,0-.1,0-.2,0-.4,0-2.1.1-3.6-.5-4-2.1-2.5-10.1,4.6-19,4.6-19-.3-2.8-.2-5.3.1-7.5,0-.2,0-.5.1-.7.2-.9.4-1.8.6-2.6,0-.3.2-.5.2-.8,0-.2.2-.5.2-.8.2-.5.4-.9.5-1.4,0,0,0-.2.1-.3h0l7.9,1.8Z"/>
          <path class="st56" d="M77.3,101s-.3,1.3-1.3,2.4h0c-.5.5-1.1,1-1.9,1.2-2.6.9,0,7.9-2,8.2-1.9.2.7,4-2.9,6.3-3.6,2.2.9,7.5-.8,8.5-1,.6,1.1,3.2,2.9,5.1,0,0,0,0,0,0-.2,0-.4,0-.6,0-.1,0-.3,0-.4,0-.1,0-.3,0-.4,0-.1,0-.2,0-.4,0-2.1.1-3.6-.5-4-2.1-2.5-10.1,4.6-19,4.6-19-.3-2.8-.2-5.3.1-7.5,0-.2,0-.5.1-.7.2-.9.4-1.8.6-2.6h6.4Z"/>
          <path class="st40" d="M70.1,111.7c1.3,2.6,4.8,2.2,7.2,2-2.4.5-6.2.8-7.2-2h0Z"/>
          <path class="st40" d="M66.7,117.9c1.9,2.4,5.1,4.6,8.2,3.4-3.1,1.4-6.5-.8-8.2-3.4h0Z"/>
          <path class="st40" d="M65.1,127.7c3.2,2.3,7.5,1.8,10.7,0-3.2,2.1-7.7,2.5-10.7,0h0Z"/>
          <path class="st40" d="M70,106.6c2.5,1.5,5.5.9,8-.1.2,0,.4,0,.5.2,0-.2-.3-.2-.5-.2-2.4,1.3-5.7,1.9-8,0h0Z"/>
          <path class="st74" d="M58.3,87.6l-13.2,9.7-6.4,2.9-1.1,2.6,4.1,1.6s6.4-.1,6.8,0c.5.1,6.2-.8,6.7-1,.5-.2,2.3-1.2,3-1.8.8-.5,4-1.1,4.6-1.2.6-.1,5.3-.5,5.8-.5s10.8-.5,10.8-.5c0,0-1.7.9,0-.4,1.7-1.2,3.8-3.2,4.4-4.5.6-1.3,2.1-4.9,2.1-5.7v-4.7s-6.5-1.5-7.3-1.5c-.8,0-11.4,1-12,1.5-.6.4-8.4,3.3-8.4,3.3Z"/>
          <path class="st67" d="M63.2,90s-7.4,2.1-8.2,3.7c-.8,1.6-6.3,4.9-6.3,4.9,0,0-7.7,3.7-1.9,4.2,6.3.6,15.6-2.7,15.6-2.7,0,0,2.7-.4,6.7-.7,4-.2,12.9-3.2,13.2-3.4.3-.2,7.3-9.8,7.3-9.8l-3-3.6s-6.7-.4-7.3,0c-.6.4-9.9,3.7-9.9,3.7l-6.1,3.8Z"/>
          <path class="st72" d="M65.9,91.2s-5,.8-7.2,2.2c-2.2,1.3-3.5,2.1-5.3,3.4-1.8,1.3-10.9,4.1-5.2,5.3,6.9,1.5,7.6-.3,7.6-.3l4.3-1.5s14-1.9,14.3-1.8,8.2-5,8.2-5l3.9-7.9-9.2-2.8-11.5,8.4Z"/>
          <path class="st18" d="M83.6,100.6s-2.8-5.9-4.4-6.4c0,0,.7,6.5,0,7.3-.6.8,4.5-.6,4.3-1Z"/>
          <path class="st34" d="M73.6,98.6s-2.8-5.9-4.4-6.4c0,0,.7,6.5,0,7.3-.6.8,4.5-.6,4.3-1Z"/>
          <path class="st24" d="M53,101.4c-1.2.6-2.8.8-4.3.9-.4-2-.8-5.2,0-6.1,0,0,2.6,3.6,4.2,5.2Z"/>
          <path class="st36" d="M61.8,99.3c-1.2.6-2.8.8-4.3.9-.4-2-.8-5.2,0-6.1,0,0,2.6,3.6,4.2,5.2Z"/>
          <path class="st4" d="M67.7,97.3c-1.2.6-2.8.8-4.3.9-.4-2-.8-5.2,0-6.1,0,0,2.6,3.6,4.2,5.2Z"/>
          <g>
            <path class="st55" d="M43.7,102.7c1.6-.4,3-1.4,4.5-2.1,1.7-.7,3.4-1.2,5.1-1.9,2-.9,3.9-1.9,6-2.5,2.4-.7,4.9-1.1,7.4-1.4,1.7-.2,3.5-.3,5.2-.3,6.7-.1,11.8-4.5,13.2-8,.6-1.4.8-2.5.8-2.5,0,0,.6-1,3.2-2.3,1.3-.7,5.4.5,8.6,3.1,0,0,0,0,0,0,1.9,1.5,3.5,3.5,4,5.9.4,1.7.2,3.6-.7,5.7-4.6,10.2-14.4,8.1-26.2,7.3-11.8-.8-23,2.2-23,2.2-5.8,1.6-12.2-.2-15.9-2.9-1.8-1.3-1.1-2.2.6-3,1-.5,2.4-1,3.8-1.6,1.1-.4,2.3-.9,3.4-1.5.2-.1.5-.3.7-.4,5.2-3,8.6-7.8,8.6-7.8,0,0,2.5-3.8,2.9-2,0,.4,0,1,0,1.9-.4,2.4-2.7,4.2-4.4,5.5-2.5,1.9-5.3,3.5-8.2,4.9-.8.4-1.5.7-2.3,1.1-.7.3-1.8.6-2.3,1.1.3.5,1.2,1.1,1.8,1.3,1.3.4,2.3.5,3.4.2Z"/>
            <path class="st60" d="M43.7,102.7c2-.5,3.6-1.9,5.5-2.5,1.9-.7,3.8-1.3,5.6-2.2,5.2-2.8,11.9-3.2,17.7-3.5,4-.2,7.9-2.1,10.6-5.1,1.4-1.5,2.2-3.4,2.7-5.3.9-1.1,2.1-1.8,3.4-2.4,3.1-.4,6,1.4,8.4,3.2,2,1.5,4.1,4.3,4.2,7.2.2,2.9-1.2,5.6-2.8,7.8-5.8,7.1-16,4.5-24,4.1-2.8-.2-5.6-.2-8.4,0-5.6.3-11.2,1.3-16.7,2.6-4.9.8-10.1-.4-14.1-3.2-1.7-1.2-1.5-2.2.3-3.1,1.9-.8,3.9-1.6,5.8-2.5,2.6-1,4.9-2.8,7-4.6,2.2-1.8,3.7-4.3,5.6-6.3,1.8-1.6,1.3,1.8,1,2.7-.5,1.4-1.5,2.4-2.5,3.3-4.3,3.7-9.5,6.2-14.5,8.5,1.1,1.5,3.4,1.9,5.1,1.5h0ZM43.7,102.7c-1.8.4-4,0-5.1-1.5,5.1-2.3,10.3-4.8,14.5-8.5,1.6-1.3,2.9-3.2,2.8-5.4,0-1-.4-1.3-1.2-.6-3.5,4.3-7.2,8.9-12.6,11-2.2,1.1-4.6,1.7-6.7,3-2.7,1.9,4.9,4.7,6.3,5,2.7.7,5.6,1,8.3.5,8.2-2,16.7-3.2,25.1-2.6,7.9.3,18.1,3,23.8-4,1.6-2.2,3-4.9,2.8-7.7-.5-5.2-5.3-8.7-10-10.1-1-.2-2.3-.5-3.2.2-.9.5-2,1.2-2.6,2-.5,2-1.3,3.9-2.7,5.4-2.7,3-6.7,4.9-10.7,5.1-5.8.3-12.4.7-17.7,3.5-1.8.9-3.7,1.5-5.6,2.2-1.9.6-3.5,2.1-5.5,2.5h0Z"/>
          </g>
          <path class="st55" d="M40.6,100.1"/>
          <path class="st57" d="M112.8,115.7c.1.5-.4,1.3-1.3,2.4-1-3.1-5-16.1-5.9-15.8-1.3.4-4.3,1.3-2.5-2.2,1.8-3.5,3.6-14.9,3.1-16.7-.5-1.8-.7-3.9-1.8-5.4-1.2-1.5-5.9-5-5.9-5l-6.4-3.9v-3c1.8.2,4.2.5,4.3.5,0,0-1.3.3-.4,1.9.9,1.6,8.2.6,8.2.6,0,0,9,3.6,5,12.9-1.5,3.6-1.1,18.9-1.1,18.9,0,0,3.8,10.5,4.8,14.7Z"/>
          <path class="st66" d="M36.5,100.1c1-.5,2.4-1,3.8-1.6,1.1-.4,2.3-.9,3.4-1.5.2-.1.5-.3.7-.4,5.2-3,7-6,7-6,0,0-.1-1.3.9,0-2.1,2.9-5,5.7-15.9,9.5Z"/>
          <path class="st26" d="M45.1,98.5c-1,.4-2,.8-3,1.2-.6.2-1.1.5-1.5.7,0-.2-.2-.8-.3-1.6-.3-1.7-.5-4.2.3-5,0,0,1.7,2.2,3.1,3.5.6.5,1.1.9,1.4,1,.2,0,.2.1,0,.3Z"/>
          <path class="st8" d="M51.4,94.2c-.5.3-1.1.7-1.6,1-.3.2-.6.4-.8.6,0-.1-.2-.5-.4-.9-.4-1-.8-2.4-.4-3,0,0,1.2,1.1,2.2,1.7.4.2.7.4.9.4.1,0,.1,0,0,.2Z"/>
          <g class="st49">
            <path class="st66" d="M101.7,90.8c-1.2-1.8-2.7-4.1-4-5.9,0,0,0,0,0,0-1.1-1.6-2-2.8-2.2-3.1-.8-.8-8.7-.2-10.6,0-1.9.2-.9,5.1-.9,5.1,0,0,.5-.2,1.2-.3,1.8-.4,5.4-.8,8.1,1.4,3.9,3,3.9,6.2,3,9.7-.2,1.1-2.2,2-5,2.6.5-1.8,1.7-6.2,1.4-6.7-.4-.6,0,2.9-2.4,7-2.4.5-5.2.9-8,1.2.5-1.3,1.1-3.2.9-3.5-.3-.3,0,1.4-1.4,3.5-3,.3-6,.5-8.2.6l.4-2.9c0,.5-.3,2.1-.9,2.9-.7,0-1.4,0-1.9,0-1.8,0-3.7.2-5.7.4-.1-.5-.5-2.3-.8-2.5-.4-.3.2,1.9-.5,2.7-3,.3-5.9.8-8.1,1.4l-1.3-1.1s.5,1,.4,1.4c0,0,0,0,0,0-.1,0-.3,0-.4.1-3.6,1.2-8.3.9-8.3.9,0,0-4.3.6-5.4-.2-1-.9-5.4-2-5.5-2.9-.1-.8.7-2.2.7-2.2-1.7.8-2.4,1.7-.6,3,3.8,2.8,10.1,4.5,15.9,2.9,0,0,11.3-3.1,23-2.2,11.8.8,21.6,2.9,26.2-7.3.9-2.1,1.1-4,.7-5.7Z"/>
            <path class="st66" d="M74,99.3c0,0,0-.1,0-.1h0Z"/>
          </g>
          <path class="st38" d="M21,83.4s1.7,6.3,3.6,7.2c0,0,.9-6.5,1.8-7.2s-5.5-.4-5.4,0Z"/>
          <path class="st5" d="M32.1,86.1s1.7,6.3,3.6,7.2c0,0,.9-6.5,1.8-7.2,1-.6-5.5-.4-5.4,0Z"/>
          <path class="st37" d="M43.4,83.8s1.7,6.3,3.6,7.2c0,0,.9-6.5,1.8-7.2,1-.6-5.5-.4-5.4,0Z"/>
          <path class="st29" d="M63,87.6s1.4,6.3,2.9,7.2c0,0,.7-6.5,1.5-7.2.8-.6-4.5-.4-4.4,0Z"/>
          <path class="st9" d="M73.1,88s1.4,6.3,2.9,7.2c0,0,.7-6.5,1.5-7.2.8-.6-4.5-.4-4.4,0Z"/>
          <path class="st22" d="M51.6,88.3s2.6,6,4.2,6.5c0,0-.5-6.6.2-7.3.7-.8-4.5.4-4.4.8Z"/>
          <path class="st12" d="M57.3,88.7s2.6,6,4.2,6.5c0,0-.5-6.6.2-7.3.7-.8-4.5.4-4.4.8Z"/>
          <path class="st62" d="M100,99.4v-.9c-.4-1.3-.4-2.5-.5-3.6-.1-1.5-.4-2.7-.5-3.8h0c-2.7-7.6-9.3-6.6-12.1-5.9-.7.2-1.2.4-1.2.4,0,0-.3,3.6-5.3,6.2-5,2.6-7.3,2-10.5,1-3.2-1-.3-1.5-7.9-1.4-7.6.1-10.2-1.5-10.2-1.5-5.3-4-8.7-3.1-8.7-3.1-8.8,2-11.1,1.4-13.3,0-2.2-1.4,1.4-2.9-5.7-1.9-4.5.6-5.5-1.3-5-4,0-.1,0-.2,0-.3.3-1.5.9-3.1,1.6-4.6,1.9-4.4,9.7-1.6,9.7-1.6,4.3.1,6.8,1,8.3,1.9.1,0,.3.2.4.3l.2-.6v-.2c2.5-1.9,9.4-.2,9.4-.2,2.4-1.2,10.7-.3,10.7-.3.2-.9,1.2-1.4,2.4-1.7,2.3-.6,5.5-.2,5.5-.2l3.1-6.8c.2,0-1.2-.3-1-.3,2.4.1,3.3,1.3,3.6,2.1.2.5.2.9.2.9l1.1-1.8h0c7.9-5.8,10.2-2.9,13.1-1.1,2.9,1.8,5.2,6.9,5.2,6.9l8.1,5.8c10.7,10.4-1.2,20.5-.8,20.5Z"/>
          <path class="st65" d="M23.4,80.1s-.3-3.2-1.6-2.5-1.1,1.9,1.6,2.5Z"/>
          <path class="st65" d="M32.8,81.5s6.8-2.6,5.7-.4c-1.1,2.2-3.9.9-5.7.4Z"/>
          <g>
            <path class="st52" d="M75.9,72.4c0,.1,0,.3,0,.4h0s0,0,0,0c0,0,0,0,0,.1t0,0c0,.9-.6,1.5-1.2,2,0,0-.1,0-.2.1-.5.4-1,.6-1.5.8-.8.3-1.5.5-1.5.5l-2-.9s-1.5-2.2.7-7.7c2.2-5.4,5.3,1.4,5.7,4.5Z"/>
            <path class="st71" d="M75.9,72.4c.3,2.3-2.4,3.6-4.4,4.1,0,0,0,0,0,0l-2-.8s0,0,0,0c0,0,0,0,0,0-1.1-2.2-.4-4.8.3-7,2.3-6.8,5.8.1,6.1,3.7h0ZM75.9,72.4c-.1-1.8-2.5-8.5-4.8-5.7-1.4,2.5-2.5,6-1.4,8.8,0,0,0,0,0,0,0,0,2.2,1,1.9.9,2-.4,4.6-1.6,4.4-4h0Z"/>
          </g>
          <path class="st10" d="M74.4,72.8c.3-1.5-.5-2.9-1.7-3.1-1.2-.2-2.4.9-2.6,2.4-.3,1.5.5,2.9,1.7,3.1,1.2.2,2.4-.9,2.6-2.4Z"/>
          <path class="st61" d="M72.8,72.4c0-1.2,0-2.1-.3-2.2-.2,0-.5.9-.6,2.1,0,1.2,0,2.1.3,2.2.2,0,.5-.9.6-2.1Z"/>
          <path class="st59" d="M78.8,68.4c-1.4,1.3-2.2,2.4-2.2,2.4.2-2.5-.2-3.8-.8-4.5,2,.1,2.7,1.3,3,2.1Z"/>
          <path class="st47" d="M99,99.3v-.9c.4-3.1.1-5.5,1-7.4h0c1.1-10-7-14.7-7-14.7l-1.1-4c-3.7-10.4-9.6-8-13.3-5h0c6.5-5.8,8.4-2.9,10.7-1.1,2.4,1.8,4.3,6.9,4.3,6.9l6.6,5.8c8.7,10.4-1,20.5-1.3,20.5Z"/>
          <path class="st47" d="M74.9,74.9c-.4.7-1.9,3.5-2.6,3.5-.6,0,.6-.5-1-2.4.5,0,1,0,1.6,0,0,0,.1,0,.2,0,.7-.1,1.4-.5,1.8-1.1Z"/>
          <path class="st39" d="M72.4,75.1"/>
          <path d="M43.4,79.6c0-.2-.3-.3-.4-.5-1.2-.9-2.6-1.6-3.9-2.4,1.2.5,2.4,1.1,3.4,1.9.3.3.8.5.9,1h0Z"/>
          <path d="M48.7,75.7c2.2.6,4.7,1.3,6.2,3.1-1.7-1.6-4.1-2.2-6.2-3.1h0Z"/>
          <g>
            <path class="st59" d="M63.8,77.4s-2.6-1.6-3.3-1.9"/>
            <path d="M63.8,77.4c-1-.4-2.3-1.3-3.3-1.9,1.2.4,2.3,1.1,3.3,1.9h0Z"/>
          </g>
          <path class="st47" d="M90.9,76.5c-.1-.6-.3-1.2-.4-1.8,0-.4,0-.8,0-1.2,0-.4,0-.8,0-1.2,0-.7,0-1.5-.2-2.2-.2-1-.5-2.1-1.2-2.9-.6-.6-1.3-1-2.1-1.1-.8-.2-1.6-.1-2.4,0-.8.2-1.6.6-2.3,1,0,0-.2,0-.3.1-3.6,2.3-.4,11.5-.4,11.5"/>
          <path class="st20" d="M83.3,76.5s-4.3-5.2-1.2-8.1c3.1-2.9,6.5-1.8,7.3,1.3.8,3.1-.8,5.4-1,5.9-.1.4-4.2,1.5-5.1.9Z"/>
          <path class="st52" d="M71.8,70.1c0,.7-.4,1.2-.8,1.1-.4,0-.6-.6-.5-1.3,0-.7.4-1.2.8-1.1.4,0,.6.6.5,1.3Z"/>
          <path class="st52" d="M73.4,74.3c0,.1,0,.3,0,.4-.1,0-.3,0-.4-.1,0-.1,0-.3,0-.4.1,0,.3,0,.4.1Z"/>
          <path class="st52" d="M89,72.6c0-2.6-1.5-4.7-3.4-4.7s-3.4,2.1-3.4,4.7,1.5,4.7,3.4,4.7,3.4-2.1,3.4-4.7Z"/>
          <path class="st62" d="M90.9,76.5c-9.7-.7-9.5,2.9-9.5,2.9,0,0-.8,1.8,2.5,1.4s6.8-2.3,6.8-2.3l.2-2Z"/>
          <path d="M81,80c.8-3.5,5.3-3.7,8.2-3.6,1.1,0,2.1.2,3.2.4-3.6-.3-10-1.1-11.4,3.2h0Z"/>
          <g>
            <path class="st33" d="M66.4,68.2s-.3,5.3,1.2,6.4c1.5,1,5.9,1.8,7.1,1.3,1.2-.5,2.8-6,2.8-6l-11.1-1.7Z"/>
            <path class="st33" d="M79.7,70.2s.8,5.3,2.5,6c1.7.7,6.2.6,7.2-.2,1.1-.8,1.5-6.4,1.5-6.4l-11.2.6Z"/>
            <polygon class="st32" points="76.8 72.5 79.8 72.5 79.7 71.2 77.2 71.2 76.8 72.5"/>
            <polygon class="st27" points="90.6 71.2 91.5 70.8 91.5 69.5 90.8 69.5 90.6 71.2"/>
            <polygon class="st32" points="91.5 71.2 103.1 69.9 102.5 68.9 91.5 69.9 91.5 71.2"/>
          </g>
          <g>
            <path class="st41" d="M69.2,68.3c4.1.5,8.4.4,12.3.4,5.1,0,10.4,0,15.4.9,1.3.3,11.6,4.1,11.9,3.5.4-.8,1.9-2.2,1.2-4s-19.4-6.3-26.6-7.2c-7.2-.8-16.6-.8-16.7,0-.2.8-10.7,1.6-9.7,2.3,3.6,2.5,7.8,3.5,12.1,4Z"/>
            <path class="st69" d="M71.1,67.5c3.9.4,7.9.3,11.7.3,4.9,0,9.8,0,14.6.7,1.2.2,11,3.3,11.2,2.8.3-.7,1.8-1.7,1.2-3.2-.7-1.5-18.3-5-25.1-5.7-6.8-.7-15.6-.7-15.8,0-.2.7-10.1,1.3-9.1,1.8,3.4,2,7.4,2.8,11.5,3.2Z"/>
            <g>
              <g>
                <path class="st41" d="M111.2,67.7c-.6.9-1.7,1.4-2.8,1.7-2.7.8-5.8.5-8.7.2-5.2-.6-10.3-1.5-15.4-2.8-1.8-.4-3.7-.9-5.3-1.8-1.7-.9-3.2-2.1-4.7-3.4-1-.9-2.1-1.8-3-2.7-.4-.4-.8-.8-1-1.3-.5-1-.2-2.2.2-3.2,1.1-3,3.1-5.7,5.8-7.8.7-.5,1.4-1,2.1-1.4,3-1.8,6.6-2.9,10.3-3.1,1.7,0,3.4.1,5.1.6,2.3.7,4.5,1.3,6.8,2,1,.3,2,.6,2.9,1,4,1.7,6.3,5.6,7.6,9.2.3.7.5,1.5.7,2.2.8,2.9.8,6,.2,8.8,0,0,0,0,0,.1-.1.6-.3,1.2-.7,1.7Z"/>
                <path class="st64" d="M111.7,57.1c-.3,1-.7,1.9-1.2,2.8-1.8,3.3-5.3,5.6-9.2,6.7-3.9,1.1-8.3.9-12.5,0-3.1-.7-6.1-1.8-8.7-3.5-2.6-1.7-4.6-4.2-5.5-6.9-.5-1.5-.6-3-.4-4.4.2-1.6.8-3.6,1.8-5.1.7-.5,1.4-1,2.1-1.4,3-1.8,6.6-2.9,10.3-3.1,1.7,0,3.4.1,5.1.6,2.3.7,4.5,1.3,6.8,2,1,.3,2,.6,2.9,1,4,1.7,6.3,5.6,7.6,9.2.3.7.5,1.5.7,2.2Z"/>
                <path class="st41" d="M106.6,47.8c-2.4-1.4-5.2-2-7.9-2-2.7,0-5.4.6-7.8,1.5-1.9.7-3.7,1.7-5.1,3-1.9,1.8-3.1,4.1-3.8,6.6-.8,2.4-1.2,4.9-1.9,7.4-.1.5-.3,1.1-.7,1.4-.6.5-1.6.6-2.4.3-.6-.2-1.1-.5-1.5-.8-1.1-1-2.3-2-3.3-3-.9-.9-1.9-1.6-2.8-2.4-.9-.9-.3-1.9.1-2.9,3.3-6.9,11-11.6,19.4-13.2,1.6-.3,3.2-.5,4.8-.5,3.6,0,7.2,1.1,10.3,2.8.2,0,.3.2.5.3.7.4,1.3.9,1.9,1.4,0,0,.1,0,.2.2Z"/>
                <path class="st41" d="M111.7,55.6c-.5.6-1.4-.4-1.9-.6-.9-.4-1.8-.6-2.7-.8-1.8-.3-3.7-.1-5.5.2-3,.5-6,1.5-8.4,3.1-.9.7-1.8,1.4-2.8,1.9-.2,0-.4.2-.6.2-.3,0-.5-.2-.7-.3-.5-.3-1-.7-1.5-1.1-.4-.3-1.1-.5-1.3-.9-.2-.4.3-1,.6-1.5,0,0,.1-.1.2-.2,1.8-2.6,4.6-3.9,7.8-4.8,3.6-1,7.5-1.2,11.3-.4,1.1.2,2.2.7,3.1,1.3.7.4,1.4.9,1.8,1.5.2.3.6,1.1.7,1.7,0,.2,0,.5-.1.6Z"/>
                <path class="st54" d="M111.8,55c0,0-.1,0-.2,0,0,0-1.1-.8-1.3-.9-.4-.2-.9-.3-1.4-.5-3.7-1.1-7.9-.7-11.4.4-.7.2-1.5.5-2.1.8-1.7.8-3.6,1.8-4.9,3-.2.2-.3.3-.6.4-1.1.2-2.7-1.2-3.1-2,0-.1,0-.3,0-.4,0,0,.1-.1.2-.2,1.8-2.6,4.6-3.9,7.8-4.8,3.6-1,7.5-1.2,11.3-.4,1.1.2,2.2.7,3.1,1.3.7.4,1.4.9,1.8,1.5.2.3.6,1.1.7,1.7Z"/>
                <path class="st54" d="M104,46c-.1,0-.3,0-.4,0-4.8-1.1-9-.7-13.3,1-3.1,1.2-5.8,3.1-7.7,5.6-1.1,1.4-1.9,3-2.6,4.6-.7,1.6-1.4,3.1-1.8,4.8-.3,1.2-.5,2.5-1,3.7,0,.1-.1.3-.2.4-.6-.2-1.1-.5-1.5-.8-1.1-1-2.3-2-3.3-3-.9-.9-1.9-1.6-2.8-2.4-.9-.9-.3-1.9.1-2.9,3.3-6.9,11-11.6,19.4-13.2,1.6-.3,3.2-.5,4.8-.5,3.6,0,7.2,1.1,10.3,2.8Z"/>
              </g>
              <path class="st41" d="M66.2,61.2s-1.5-.2-1.1.7c.4.9,2,2.3,5.1,2.8.7.1.2-.7.2-.7l-4.2-2.8Z"/>
              <path class="st41" d="M65.6,56.5s-1.6.3-.6,5.2c.2.8.8-.5.8-.5l-.2-4.7Z"/>
              <g>
                <path class="st41" d="M69.7,64.7l3.4.2s4.9-1.7,4.7-6.1c-.2-4.4-2.8-6.5-5.6-6.5"/>
                <path class="st69" d="M75.7,58.7c-.2,3.4-2.8,6-5.7,5.8-2.9-.2-5.2-3.1-5-6.5.2-3.4,2.8-6,5.7-5.8,2.9.2,5.2,3.1,4.9,6.5Z"/>
                <path class="st7" d="M74.1,58.6c-.1,2.4-1.9,4.2-4,4-2-.1-3.6-2.1-3.4-4.5.1-2.4,1.9-4.2,4-4,2,.1,3.6,2.1,3.4,4.5Z"/>
              </g>
            </g>
          </g>
          <path class="st57" d="M99.7,94.9c-.1-1.5-.4-2.7-.7-3.8h0c-2.4-7.6-9.1-6.6-11.8-5.9-.7.2-1.2.4-1.2.4,0,0-.3,3.6-5.3,6.2s-7.3,2-10.5,1c-3.2-1-.3-1.5-7.9-1.4-7.6.1-10.2-1.5-10.2-1.5-5.3-4-8.7-3.1-8.7-3.1-8.8,2-11.1,1.4-13.3,0-2.2-1.4,1.4-2.9-5.7-1.9-4.7.7-5.5-1.5-5-4.3h0c.7.4,1.6.7,3,.8,4.1.2,9.7,1.7,9.9,3.5.2,1.8,18-3.2,18.9,0,.9,3.2,14.4,3.4,19.2,4.5,4.7,1,6.1,3,14.8-4.5,0,0,10.2-6.7,14.9,6.4.4,1.2.3,2.4-.3,3.5Z"/>
          <path class="st47" d="M85.7,85.7s-.3,3.6-5.3,6.2-7.3,2-10.5,1c-3.2-1-.3-1.5-7.9-1.4-7.6.1-10.2-1.5-10.2-1.5-5.3-4-8.7-3.1-8.7-3.1-8.8,2-11.1,1.4-13.3,0-2.2-1.4,1.4-2.9-5.7-1.9-4.5.6-5.5-1.3-5-4,.7.8,1.6,1.5,3.1,1.7,4.3.7,7.4-1.5,8.9,3.9,0,0,3.6,1.1,11.5-.9,8-2,7,1.5,7,1.5,0,0,3.3,2,9.8,2.2,6.4.2,7.4-.1,12.3,2,4.8,2.1,13.5-4.4,14.1-5.7Z"/>
          <path class="st39" d="M55.8,102.4c.7.6,1.1,2.1,0,2.6.9-.7.4-1.8,0-2.6h0Z"/>
          <path class="st39" d="M64.3,103.5c.6-1.4,1-3.1.2-4.6,1.1,1.3.7,3.3-.2,4.6h0Z"/>
          <path class="st39" d="M72.7,103.4c.9-1.6,2.2-3.6,1.3-5.5,1.2,1.8-.2,4-1.3,5.5h0Z"/>
          <path class="st39" d="M80.8,103.4c.9-1.7,1.9-3.4,2.3-5.3.1-.6.1-1.3-.2-1.9.4.5.4,1.2.3,1.9-.3,1.9-1.3,3.7-2.4,5.2h0Z"/>
          <path class="st45" d="M92.8,100.4"/>
          <path class="st39" d="M89.1,104.2c1.3-2.9,2.6-5.8,3.5-8.8.2-1,.6-2.1.2-3.1.5.9.2,2.1,0,3.1-.8,3.1-2.1,6-3.6,8.8h0Z"/>
          <path class="st57" d="M105.5,108.3c.1.7-.2,1.3-.8,1.4-.6.1-1.2-.4-1.3-1-.1-.7.2-1.3.8-1.4.6-.1,1.2.4,1.3,1Z"/>
          <path class="st48" d="M108,84.1c.1.7-.2,1.3-.8,1.4-.6.1-1.2-.4-1.3-1-.1-.7.2-1.3.8-1.4.6-.1,1.2.4,1.3,1Z"/>
          <path class="st48" d="M97.9,76.9c0,.3-.2.6-.4.6s-.4-.2-.4-.6.2-.6.4-.6.4.2.4.6Z"/>
          <path class="st57" d="M97.2,72.5c.1.3,0,.6-.1.7-.2.1-.5,0-.6-.3-.1-.3,0-.6.1-.7.2-.1.5,0,.6.3Z"/>
          <path class="st43" d="M101.3,80.4c-.1.3-.4.5-.6.5-.2,0-.3-.4-.1-.8.1-.3.4-.5.6-.5.2,0,.3.4.1.8Z"/>
          <path class="st43" d="M106.5,78.2c-.1.3-.4.5-.6.5-.2,0-.3-.4-.1-.8.1-.3.4-.5.6-.5.2,0,.3.4.1.8Z"/>
          <path class="st57" d="M103.6,86.8c-.1.3-.4.5-.6.5-.2,0-.3-.4-.1-.8.1-.3.4-.5.6-.5.2,0,.3.4.1.8Z"/>
          <path class="st43" d="M109.5,118.7c-.1.3-.4.5-.6.5-.2,0-.3-.4-.1-.8.1-.3.4-.5.6-.5.2,0,.3.4.1.8Z"/>
          <path class="st48" d="M104.9,112c-.1.3-.4.5-.6.5-.2,0-.3-.4-.1-.8.1-.3.4-.5.6-.5.2,0,.3.4.1.8Z"/>
          <path class="st43" d="M107.3,90.2c-.1.3-.4.5-.6.5-.2,0-.3-.4-.1-.8.1-.3.4-.5.6-.5.2,0,.3.4.1.8Z"/>
          <path class="st43" d="M109.5,111.4c-.1.3-.4.5-.6.5-.2,0-.3-.4-.1-.8.1-.3.4-.5.6-.5.2,0,.3.4.1.8Z"/>
          <path class="st43" d="M99.9,74.9c-.1.3-.4.5-.6.5-.2,0-.3-.4-.1-.8.1-.3.4-.5.6-.5.2,0,.3.4.1.8Z"/>
          <path class="st43" d="M108.1,76.4c0,.2-.2.4-.4.4s-.4-.2-.4-.4.2-.4.4-.4.4.2.4.4Z"/>
          <path class="st48" d="M104.9,73.9c0,.6-.5,1.1-1.1,1.1s-1.1-.5-1.1-1.1.5-1.1,1.1-1.1,1.1.5,1.1,1.1Z"/>
          <path class="st43" d="M106.5,100.9c0,.6-.5,1.1-1.1,1.1s-1.1-.5-1.1-1.1.5-1.1,1.1-1.1,1.1.5,1.1,1.1Z"/>
          <path class="st57" d="M103.9,77.6c0,.8-.5,1.4-1.1,1.4s-1.1-.6-1.1-1.4.5-1.4,1.1-1.4,1.1.6,1.1,1.4Z"/>
          <path class="st48" d="M109.1,107.3c0,.8-.5,1.4-1.1,1.4s-1.1-.6-1.1-1.4.5-1.4,1.1-1.4,1.1.6,1.1,1.4Z"/>
          <path class="st57" d="M111.6,114.3c0,.8-.5,1.4-1.1,1.4s-1.1-.6-1.1-1.4.5-1.4,1.1-1.4,1.1.6,1.1,1.4Z"/>
          <path class="st43" d="M106.8,80.7c-.2.5-.6.9-1,.7-.4-.1-.5-.7-.3-1.2.2-.5.6-.9,1-.7.4.1.5.7.3,1.2Z"/>
          <path class="st48" d="M101.3,88.2c.1.5,0,1.1-.4,1.2-.4.1-.8-.3-1-.8-.1-.5,0-1.1.4-1.2.4-.1.8.3,1,.8Z"/>
          <path class="st43" d="M103.5,82.9c.1.5,0,1.1-.4,1.2-.4.1-.8-.3-1-.8-.1-.5,0-1.1.4-1.2.4-.1.8.3,1,.8Z"/>
          <path class="st57" d="M106.5,92.6c.1.5,0,1.1-.4,1.2-.4.1-.8-.3-1-.8-.1-.5,0-1.1.4-1.2.4-.1.8.3,1,.8Z"/>
          <path class="st43" d="M107.3,109.8c.1.5,0,1.1-.4,1.2-.4.1-.8-.3-1-.8-.1-.5,0-1.1.4-1.2.4-.1.8.3,1,.8Z"/>
          <path class="st43" d="M105.2,115.1c.1.5,0,1.1-.4,1.2-.4.1-.8-.3-1-.8-.1-.5,0-1.1.4-1.2.4-.1.8.3,1,.8Z"/>
          <g class="st68">
            <path class="st61" d="M52.2,100.5c2.3-.6,4-2.1,5.7-3.7,1.7-1.7,4.2-2.1,6.5-2.1-2.3.3-4.6.6-6.3,2.3-1.6,1.6-3.6,3.1-5.9,3.5h0Z"/>
          </g>
          <path class="st44" d="M52,98.4s4.6-3.8,6.7-4.7,4.1-1.1,4.4-1c.3.2-.3.9-1,1-.6,0-2.8.6-3.9,1.3-1.1.7-2.1,1.9-3,2.4s-3.9,2.6-3.9,2.1.6-1.1.6-1.1Z"/>
          <path class="st46" d="M71.9,58.7c0,1.7-.8,3.1-1.8,3.1s-1.8-1.4-1.8-3.1.8-3.1,1.8-3.1,1.8,1.4,1.8,3.1Z"/>
          <path class="st53" d="M71.4,58.7c0,1.1-.6,2.1-1.3,2.1s-1.3-.9-1.3-2.1.6-2.1,1.3-2.1,1.3.9,1.3,2.1Z"/>
          <path class="st51" d="M70.6,58.7c0,.4-.2.8-.5.8s-.5-.4-.5-.8.2-.8.5-.8.5.4.5.8Z"/>
          <path class="st47" d="M44.5,80.5c0,.3-1.3-.8-2.1-2,1.1.9,2,1.7,2.1,2Z"/>
          <path class="st47" d="M61.6,77.3l-3.7-1.2c-8.7-.2-5.2,2-5.2,2-11.2-3.8-11.5-1.6-10.2.4-.9-.7-2-1.6-3-2.3v-.2c2.5-1.9,9.4-.2,9.4-.2,2.4-1.2,10.7-.3,10.7-.3.2-.9,1.2-1.4,2.4-1.7-.9,1.4-.2,3.6-.2,3.6Z"/>
          <path class="st47" d="M58.3,82.4s4.8,0,8.4-1.6,10-.8,11.6-.8-6.9,1.1-9.1,1.6c-2.1.5-16.4.9-16.5.7-.1-.3,5.6,0,5.6,0Z"/>
          <path class="st10" d="M87.5,73.2c.1-1.5-.8-2.9-2-3-1.2,0-2.3,1.1-2.4,2.6-.1,1.5.8,2.9,2,3,1.2,0,2.3-1.1,2.4-2.6Z"/>
          <path class="st61" d="M85.7,73c0-1.2,0-2.1-.3-2.2-.2,0-.5.9-.6,2.1,0,1.2,0,2.1.3,2.2.2,0,.5-.9.6-2.1Z"/>
          <path class="st52" d="M84.7,70.7c0,.7-.4,1.2-.8,1.1-.4,0-.6-.6-.5-1.3,0-.7.4-1.2.8-1.1.4,0,.6.6.5,1.3Z"/>
          <path class="st52" d="M86.4,74.9c0,.1,0,.3,0,.4-.1,0-.3,0-.4-.1,0-.1,0-.3,0-.4.1,0,.3,0,.4,0Z"/>
        </g>
      </g>
      <g>
        <path class="st61" d="M34.9,45.2l1.5-1.7,5.2,2.2-3-4.8,1.4-1.7,7.5,5-1.2,1.4-5.3-3.5,3.5,5.6-.6.7-6.1-2.6,4.3,4.7-1.2,1.4-6.1-6.7Z"/>
        <path class="st61" d="M43.5,36.2l2.4-1.7c.7-.5,1.4-.8,2.1-.7.7,0,1.3.4,1.8,1.1.3.4.5.8.5,1.4,0,.5,0,1.1-.4,1.7l4.2,1.6-1.8,1.3-3.9-1.5h-.2c0,.1,2,2.9,2,2.9l-1.6,1.1-5.3-7.3ZM46,36.4l1.4,1.9.3-.2c.8-.6,1-1.2.5-1.9-.2-.3-.5-.4-.8-.4-.3,0-.7.1-1.1.4l-.4.3Z"/>
        <path class="st61" d="M55,38.1c-.1-.3-.2-.5,0-.8,0-.3.3-.5.5-.6s.5-.2.8,0c.3,0,.5.3.6.5.1.3.2.5,0,.8,0,.3-.3.5-.5.6-.3.1-.5.2-.8,0-.3,0-.5-.3-.6-.5Z"/>
        <path class="st61" d="M63.1,26l1.4-.4,6,7.6-1.9.5-1.2-1.5-3.3.9-.2,1.9-1.9.5,1-9.6ZM64.7,28.6l-.3,2.8,2.1-.6-1.8-2.2Z"/>
        <path class="st61" d="M70.8,24.2l1.9-.3,1,7,2.6-.4.3,1.9-4.5.7-1.3-8.9Z"/>
        <path class="st61" d="M77.8,23.3h1.9c0-.1.4,6.9.4,6.9h2.6c0-.1.1,1.8.1,1.8l-4.6.2-.5-9Z"/>
        <path class="st61" d="M84.1,23h1.9s-.1,9-.1,9h-1.9s.1-9,.1-9Z"/>
        <path class="st61" d="M96.7,26l-1.4,1c-.2-.5-.5-.9-.9-1.2-.4-.3-.8-.4-1.2-.5-.7,0-1.3.1-1.9.6-.6.5-.9,1.1-1,1.8,0,.8,0,1.4.5,2,.4.6,1,.9,1.8,1,.4,0,.8,0,1.2-.2.4-.2.7-.5,1-1l-2.1-.3.2-1.7,4.1.5v1.2c-.2.6-.5,1.2-1,1.8-.5.6-1.1,1.1-1.8,1.3-.7.2-1.4.3-2.1.2-1.2-.1-2.2-.7-3-1.7-.7-1-1-2.1-.9-3.5.2-1.2.7-2.3,1.7-3,1-.8,2.1-1.1,3.3-.9,1.6.2,2.7,1,3.4,2.5Z"/>
        <path class="st61" d="M103.4,25.7l1.4.4.9,9.7-1.9-.6-.2-1.9-3.3-1-1.2,1.5-1.9-.6,6-7.5ZM103.3,28.7l-1.8,2.2,2,.6-.3-2.8Z"/>
        <path class="st61" d="M109.6,27.8l5.4,2.6-.8,1.7-1.9-.9-3.1,6.4-1.7-.8,3.1-6.4-1.8-.9.8-1.7Z"/>
        <path class="st61" d="M114.7,35.2c.8-1.1,1.8-1.7,3-1.8,1.2-.2,2.3.1,3.3.8,1.1.8,1.7,1.8,1.9,3,.2,1.2-.1,2.4-.9,3.4-.8,1.1-1.8,1.7-3,1.9-1.2.2-2.3-.1-3.4-.9-1-.8-1.7-1.8-1.8-3-.2-1.2.2-2.3,1-3.4ZM120,35.7c-.6-.5-1.2-.6-1.9-.5-.7.2-1.3.6-1.8,1.2-.5.6-.7,1.3-.6,2,0,.7.4,1.3,1,1.7.6.5,1.2.6,1.9.5.7-.1,1.3-.5,1.8-1.2.5-.7.7-1.3.7-2,0-.7-.4-1.2-1-1.7Z"/>
        <path class="st61" d="M127.2,39.6l1.9,2.3c.6.7.9,1.4.8,2.1,0,.7-.3,1.3-1,1.8-.4.3-.8.5-1.3.6-.5.1-1.1,0-1.7-.3l-1.3,4.3-1.4-1.7,1.2-4v-.2c-.1,0-2.8,2.2-2.8,2.2l-1.2-1.5,6.9-5.8ZM127.2,42.1l-1.8,1.5.3.3c.6.8,1.3.9,1.9.4.3-.2.4-.5.4-.8,0-.3-.2-.7-.5-1l-.3-.3Z"/>
      </g>
      <g>
        <path class="st23" d="M35.9,45.2l1.5-1.7,5.2,2.2-3-4.8,1.4-1.7,7.5,5-1.2,1.4-5.3-3.5,3.5,5.6-.6.7-6.1-2.6,4.3,4.7-1.2,1.4-6.1-6.7Z"/>
        <path class="st23" d="M44.5,36.2l2.4-1.7c.7-.5,1.4-.8,2.1-.7.7,0,1.3.4,1.8,1.1.3.4.5.8.5,1.4,0,.5,0,1.1-.4,1.7l4.2,1.6-1.8,1.3-3.9-1.5h-.2c0,.1,2,2.9,2,2.9l-1.6,1.1-5.3-7.3ZM47,36.4l1.4,1.9.3-.2c.8-.6,1-1.2.5-1.9-.2-.3-.5-.4-.8-.4-.3,0-.7.1-1.1.4l-.4.3Z"/>
        <path class="st23" d="M56,38.1c-.1-.3-.2-.5,0-.8,0-.3.3-.5.5-.6s.5-.2.8,0c.3,0,.5.3.6.5.1.3.2.5,0,.8,0,.3-.3.5-.5.6-.3.1-.5.2-.8,0-.3,0-.5-.3-.6-.5Z"/>
        <path class="st23" d="M64.1,26l1.4-.4,6,7.6-1.9.5-1.2-1.5-3.3.9-.2,1.9-1.9.5,1-9.6ZM65.7,28.6l-.3,2.8,2.1-.6-1.8-2.2Z"/>
        <path class="st23" d="M71.8,24.2l1.9-.3,1,7,2.6-.4.3,1.9-4.5.7-1.3-8.9Z"/>
        <path class="st23" d="M78.8,23.3h1.9c0-.1.4,6.9.4,6.9h2.6c0-.1.1,1.8.1,1.8l-4.6.2-.5-9Z"/>
        <path class="st23" d="M85.1,23h1.9s-.1,9-.1,9h-1.9s.1-9,.1-9Z"/>
        <path class="st23" d="M97.7,26l-1.4,1c-.2-.5-.5-.9-.9-1.2-.4-.3-.8-.4-1.2-.5-.7,0-1.3.1-1.9.6-.6.5-.9,1.1-1,1.8,0,.8,0,1.4.5,2,.4.6,1,.9,1.8,1,.4,0,.8,0,1.2-.2.4-.2.7-.5,1-1l-2.1-.3.2-1.7,4.1.5v1.2c-.2.6-.5,1.2-1,1.8-.5.6-1.1,1.1-1.8,1.3-.7.2-1.4.3-2.1.2-1.2-.1-2.2-.7-3-1.7-.7-1-1-2.1-.9-3.5.2-1.2.7-2.3,1.7-3,1-.8,2.1-1.1,3.3-.9,1.6.2,2.7,1,3.4,2.5Z"/>
        <path class="st23" d="M104.4,25.7l1.4.4.9,9.7-1.9-.6-.2-1.9-3.3-1-1.2,1.5-1.9-.6,6-7.5ZM104.3,28.7l-1.8,2.2,2,.6-.3-2.8Z"/>
        <path class="st23" d="M110.6,27.8l5.4,2.6-.8,1.7-1.9-.9-3.1,6.4-1.7-.8,3.1-6.4-1.8-.9.8-1.7Z"/>
        <path class="st23" d="M115.7,35.2c.8-1.1,1.8-1.7,3-1.8,1.2-.2,2.3.1,3.3.8,1.1.8,1.7,1.8,1.9,3,.2,1.2-.1,2.4-.9,3.4-.8,1.1-1.8,1.7-3,1.9-1.2.2-2.3-.1-3.4-.9-1-.8-1.7-1.8-1.8-3-.2-1.2.2-2.3,1-3.4ZM121,35.7c-.6-.5-1.2-.6-1.9-.5-.7.2-1.3.6-1.8,1.2-.5.6-.7,1.3-.6,2,0,.7.4,1.3,1,1.7.6.5,1.2.6,1.9.5.7-.1,1.3-.5,1.8-1.2.5-.7.7-1.3.7-2,0-.7-.4-1.2-1-1.7Z"/>
        <path class="st23" d="M128.2,39.6l1.9,2.3c.6.7.9,1.4.8,2.1,0,.7-.3,1.3-1,1.8-.4.3-.8.5-1.3.6-.5.1-1.1,0-1.7-.3l-1.3,4.3-1.4-1.7,1.2-4v-.2c-.1,0-2.8,2.2-2.8,2.2l-1.2-1.5,6.9-5.8ZM128.2,42.1l-1.8,1.5.3.3c.6.8,1.3.9,1.9.4.3-.2.4-.5.4-.8,0-.3-.2-.7-.5-1l-.3-.3Z"/>
      </g>
      <text></text>
      <g>
        <path class="st61" d="M47.4,115.7l2.2,2c.7.6,1,1.3,1.1,2,0,.7-.2,1.3-.7,1.9-.3.3-.7.6-1.2.8-.5.2-1.1.2-1.8,0l-.7,4.5-1.6-1.5.7-4.1h-.2c0-.1-2.4,2.4-2.4,2.4l-1.4-1.3,6.1-6.6ZM47.7,118.2l-1.6,1.7.3.3c.7.7,1.4.7,2,.1.2-.2.3-.5.3-.9,0-.3-.3-.6-.6-1l-.3-.3Z"/>
        <path class="st61" d="M53.2,120.9l4.1,3-1.1,1.4-2.5-1.8-1.1,1.5,2.5,1.8-1,1.4-2.5-1.8-1.1,1.5,2.5,1.8-1.1,1.4-4.1-3,5.3-7.2Z"/>
        <path class="st61" d="M63.4,127.4l1.7.9-4.3,7.9-1.7-.9-.8-7.1-2.8,5.1-1.7-.9,4.3-7.9,1.7.9.9,7,2.7-5.1Z"/>
        <path class="st61" d="M64.5,133c.4-1.3,1.1-2.2,2.2-2.8,1.1-.6,2.2-.7,3.4-.3,1.3.4,2.2,1.1,2.8,2.2.6,1.1.7,2.3.3,3.5-.4,1.3-1.1,2.2-2.2,2.8-1.1.6-2.2.7-3.5.3-1.3-.4-2.2-1.1-2.7-2.2-.6-1.1-.6-2.2-.3-3.5ZM69.7,131.7c-.7-.2-1.4-.2-2,.2-.6.4-1,1-1.3,1.8-.2.8-.2,1.5,0,2.1.3.6.8,1.1,1.5,1.3.7.2,1.4.1,2-.2.6-.4,1-.9,1.3-1.8.2-.8.2-1.5,0-2.1-.3-.6-.8-1-1.5-1.3Z"/>
        <path class="st61" d="M74.3,131.3h2c0,.1,1.8,6.3,1.8,6.3l2.7-5.8h2c0,.1-4,8.8-4,8.8h-1.7c0-.1-2.7-9.3-2.7-9.3Z"/>
        <path class="st61" d="M85.3,131.5l1.5-.2,4.5,8.6-1.9.2-.9-1.7-3.4.3-.5,1.8-1.9.2,2.7-9.3ZM86.3,134.4l-.8,2.7,2.1-.2-1.3-2.5Z"/>
        <path class="st61" d="M89.9,131l5.9-1.3.4,1.9-2,.4,1.5,6.9-1.9.4-1.5-6.9-2,.4-.4-1.9Z"/>
        <path class="st61" d="M96.7,129.4l1.9-.6,2.6,8.6-1.9.6-2.6-8.6Z"/>
        <path class="st61" d="M101.5,132.8c-.5-1.2-.6-2.4-.1-3.5.5-1.1,1.2-2,2.3-2.4,1.2-.5,2.4-.6,3.5-.1,1.1.4,2,1.3,2.5,2.5.5,1.2.6,2.4.1,3.5-.4,1.1-1.3,2-2.5,2.5-1.2.5-2.4.6-3.5.1s-2-1.3-2.5-2.5ZM104.5,128.4c-.7.3-1.1.8-1.4,1.4-.2.7-.1,1.4.2,2.2.3.7.8,1.2,1.4,1.5.6.3,1.3.3,1.9,0,.7-.3,1.1-.8,1.4-1.4.2-.7.2-1.4-.2-2.2-.3-.8-.8-1.3-1.4-1.6-.6-.3-1.3-.3-2,0Z"/>
        <path class="st61" d="M113.8,121.2l1.6-1.1,5,7.4-1.6,1.1-6.6-2.5,3.2,4.8-1.6,1.1-5-7.4,1.6-1.1,6.6,2.5-3.2-4.8Z"/>
        <path class="st61" d="M120,116.4v1.8c-.7.2-1.2.3-1.4.5-.2.1-.2.3-.2.6,0,.2,0,.4.2.6.3.3.9.3,1.7,0,.6-.2,1.1-.4,1.4-.4.4,0,.7,0,1.1,0,.4.1.7.3,1,.6.5.6.8,1.3.7,2.1,0,.8-.4,1.6-1,2.1-.7.6-1.6.9-2.9.9v-2c.7,0,1.3-.1,1.7-.5.2-.2.3-.4.3-.7,0-.3,0-.5-.2-.7-.3-.3-1-.3-1.9.1-.6.2-1,.4-1.3.4-.3,0-.6,0-1-.2-.4-.1-.7-.3-.9-.6-.5-.6-.8-1.2-.8-1.9,0-.7.4-1.4,1-1.9.7-.7,1.5-1,2.5-1Z"/>
      </g>
      <g>
        <path class="st23" d="M48.4,115.7l2.2,2c.7.6,1,1.3,1.1,2,0,.7-.2,1.3-.7,1.9-.3.3-.7.6-1.2.8-.5.2-1.1.2-1.8,0l-.7,4.5-1.6-1.5.7-4.1h-.2c0-.1-2.4,2.4-2.4,2.4l-1.4-1.3,6.1-6.6ZM48.7,118.2l-1.6,1.7.3.3c.7.7,1.4.7,2,.1.2-.2.3-.5.3-.9,0-.3-.3-.6-.6-1l-.3-.3Z"/>
        <path class="st23" d="M54.2,120.9l4.1,3-1.1,1.4-2.5-1.8-1.1,1.5,2.5,1.8-1,1.4-2.5-1.8-1.1,1.5,2.5,1.8-1.1,1.4-4.1-3,5.3-7.2Z"/>
        <path class="st23" d="M64.4,127.4l1.7.9-4.3,7.9-1.7-.9-.8-7.1-2.8,5.1-1.7-.9,4.3-7.9,1.7.9.9,7,2.7-5.1Z"/>
        <path class="st23" d="M65.5,133c.4-1.3,1.1-2.2,2.2-2.8,1.1-.6,2.2-.7,3.4-.3,1.3.4,2.2,1.1,2.8,2.2.6,1.1.7,2.3.3,3.5-.4,1.3-1.1,2.2-2.2,2.8-1.1.6-2.2.7-3.5.3-1.3-.4-2.2-1.1-2.7-2.2-.6-1.1-.6-2.2-.3-3.5ZM70.7,131.7c-.7-.2-1.4-.2-2,.2-.6.4-1,1-1.3,1.8-.2.8-.2,1.5,0,2.1.3.6.8,1.1,1.5,1.3.7.2,1.4.1,2-.2.6-.4,1-.9,1.3-1.8.2-.8.2-1.5,0-2.1-.3-.6-.8-1-1.5-1.3Z"/>
        <path class="st23" d="M75.3,131.3h2c0,.1,1.8,6.3,1.8,6.3l2.7-5.8h2c0,.1-4,8.8-4,8.8h-1.7c0-.1-2.7-9.3-2.7-9.3Z"/>
        <path class="st23" d="M86.3,131.5l1.5-.2,4.5,8.6-1.9.2-.9-1.7-3.4.3-.5,1.8-1.9.2,2.7-9.3ZM87.3,134.4l-.8,2.7,2.1-.2-1.3-2.5Z"/>
        <path class="st23" d="M90.9,131l5.9-1.3.4,1.9-2,.4,1.5,6.9-1.9.4-1.5-6.9-2,.4-.4-1.9Z"/>
        <path class="st23" d="M97.7,129.4l1.9-.6,2.6,8.6-1.9.6-2.6-8.6Z"/>
        <path class="st23" d="M102.5,132.8c-.5-1.2-.6-2.4-.1-3.5.5-1.1,1.2-2,2.3-2.4,1.2-.5,2.4-.6,3.5-.1,1.1.4,2,1.3,2.5,2.5.5,1.2.6,2.4.1,3.5-.4,1.1-1.3,2-2.5,2.5-1.2.5-2.4.6-3.5.1s-2-1.3-2.5-2.5ZM105.5,128.4c-.7.3-1.1.8-1.4,1.4-.2.7-.1,1.4.2,2.2.3.7.8,1.2,1.4,1.5.6.3,1.3.3,1.9,0,.7-.3,1.1-.8,1.4-1.4.2-.7.2-1.4-.2-2.2-.3-.8-.8-1.3-1.4-1.6-.6-.3-1.3-.3-2,0Z"/>
        <path class="st23" d="M114.8,121.2l1.6-1.1,5,7.4-1.6,1.1-6.6-2.5,3.2,4.8-1.6,1.1-5-7.4,1.6-1.1,6.6,2.5-3.2-4.8Z"/>
        <path class="st23" d="M121,116.4v1.8c-.7.2-1.2.3-1.4.5-.2.1-.2.3-.2.6,0,.2,0,.4.2.6.3.3.9.3,1.7,0,.6-.2,1.1-.4,1.4-.4.4,0,.7,0,1.1,0,.4.1.7.3,1,.6.5.6.8,1.3.7,2.1,0,.8-.4,1.6-1,2.1-.7.6-1.6.9-2.9.9v-2c.7,0,1.3-.1,1.7-.5.2-.2.3-.4.3-.7,0-.3,0-.5-.2-.7-.3-.3-1-.3-1.9.1-.6.2-1,.4-1.3.4-.3,0-.6,0-1-.2-.4-.1-.7-.3-.9-.6-.5-.6-.8-1.2-.8-1.9,0-.7.4-1.4,1-1.9.7-.7,1.5-1,2.5-1Z"/>
      </g>
      <path class="st3" d="M38,75.2"/>
      <path class="st2" d="M37.3,73.2"/>
      <path class="st47" d="M40.3,81.1s.9-2.5-5.4-2c-6.3.5-8.2,3.1-9.2.9s-4.1-4.7-5-2.5,2.8,4.1,2.8,4.1c-1.2-.4,15.1,3.8,16.9-.6Z"/>
      <line class="st11" x1="82.2" y1="70.2" x2="87.6" y2="69.9"/>
      <line class="st11" x1="82.2" y1="70" x2="87.6" y2="69.7"/>
    </g>
  </g>
</svg>